<svg xmlns="http://www.w3.org/2000/svg" width="589.755" height="408.441" viewBox="0 0 589.755 408.441">
  <g id="_37436" data-name="37436" transform="translate(-0.299 886)">
    <path id="Path_186" data-name="Path 186" d="M294.414-874.152,287.5-862.259l-13.784.138-13.784.138-6.915,11.94L246.1-838.057l-13.553.092-13.507.138-6.915,11.848-6.915,11.894-8.621-.046c-4.7-.046-10.6-.184-13.092-.369l-4.518-.277L172.389-826.3,165.8-837.826l-13.784-.138-13.784-.138-6.823-11.986-6.869-11.94H96.278l-6.915,11.986L82.449-838.1l-13.784.138-13.83.138L47.782-825.7l-7.053,12.124,7.053,12.309,7.053,12.309,13.784.138,13.83.138,5.532,9.727c3.043,5.348,6.039,10.649,6.638,11.709l1.106,1.982-6.362,10.972c-3.5,6.039-6.638,11.294-7.007,11.663-.553.6-2.535.645-13.645.507l-13-.138-6.961,11.94-6.915,11.894-13.784.23-13.784.231L7.214-705.982C3.342-699.39.253-693.765.3-693.489S3.48-687.542,7.307-680.9l6.915,12.032H41.558l6.5,11.34c3.6,6.27,6.5,11.525,6.5,11.709,0,.231-2.95,5.44-6.5,11.571-3.6,6.131-6.638,11.479-6.731,11.894s2.9,6.131,6.684,12.724l6.915,11.986,13.738.23,13.784.231,6.731,11.709,6.731,11.755-3.918,6.684c-2.121,3.688-5.209,9.036-6.869,11.894l-3,5.117,7.053,12.262L96.232-525.5h27.337l6.869,11.986,6.823,11.986h28.628l6.454-11.156c3.55-6.131,6.777-11.525,7.145-12.032.691-.83,1.245-.83,13.6-.461l12.862.369,6.684,11.663,6.638,11.617h27.383l6.869,11.986,6.823,11.986h28.305l7.007-11.986,7.007-11.986H330l6.915-11.986,6.915-11.94,12.954-.046H369.74l6.869,11.986,6.823,11.986h27.429l6.823,11.986,6.823,11.986,14.245-.092,14.291-.138,6.915-11.894,6.915-11.848h27.337l6.961-11.986c3.872-6.592,7.007-12.262,6.961-12.539,0-.323-3.089-5.9-6.823-12.355l-6.777-11.755-5.3-.277c-2.9-.184-9.128-.323-13.83-.369l-8.575-.046L460.049-562.7c-4.979-8.667-6.684-12.032-6.408-12.631.184-.415,3.181-5.532,6.592-11.433l6.223-10.649h27.337L500.8-609.4l7.007-11.986,13.6-.092,13.645-.138,6.915-11.94,6.961-11.94,13.553.184,13.6.184,6.869-11.755c3.78-6.454,7.007-11.986,7.1-12.262.138-.323-2.9-6.085-6.777-12.816l-7.007-12.262H548.975l-6.915-11.986L535.145-718.2H520.854l-14.291.046-6.915,11.94-6.915,11.986h-7.652c-4.2,0-10.142-.138-13.231-.323l-5.578-.277-6.823-11.894-6.823-11.94H425.29l-6.546-11.387-6.5-11.433.83-1.429c.461-.784,3.411-5.9,6.592-11.387l5.762-9.958,14.291-.046H454.01l7.053-12.216,7.053-12.17-6.961-12.17-7.007-12.216-14.106-.323c-12.816-.323-14.153-.277-14.66.415-.277.415-3.411,5.762-6.915,11.8l-6.408,11.064-13.784-.092-13.784-.138L377.9-801.869c-3.642-6.362-6.638-11.617-6.638-11.755s3.089-5.532,6.823-11.986l6.869-11.709-7.007-12.216L370.939-861.8l-13.784-.138-13.784-.092-6.823-11.986L329.726-886h-28.4Zm40.844.876c3.55,6.223,6.5,11.571,6.5,11.8,0,.461-11.848,21.067-13.046,22.635-.507.692-1.752.738-13.645.415l-13.138-.323-6.546-11.387-6.5-11.387,6.684-11.571,6.684-11.525h26.461ZM119.1-860.184h4.84l5.163,9.128c2.858,4.979,5.809,10.142,6.546,11.387l1.337,2.3-6.777,11.525-6.731,11.525-12.954.138c-11.894.092-13,.046-13.645-.691-1.383-1.613-12.862-22.266-12.723-22.911.092-.323,3.043-5.624,6.592-11.8L97.2-860.738l8.528.277C110.431-860.323,116.424-860.184,119.1-860.184Zm175.04,11.2,6.592,11.479-6.638,11.34L287.5-814.776H261.038l-6.684-11.571-6.638-11.525,6.592-11.387,6.546-11.34,13.369.092,13.369.092Zm82.241-.277c3.6,6.316,6.546,11.617,6.546,11.894,0,.23-3,5.578-6.638,11.848l-6.592,11.387-13.184-.277c-11.248-.23-13.231-.369-13.738-.968-.323-.415-3.273-5.486-6.592-11.294-5.394-9.358-5.993-10.649-5.578-11.617.6-1.337,12.032-20.975,12.677-21.805.323-.415,3.6-.553,13.461-.553h13.046ZM88.995-825.149c3.6,6.223,6.454,11.571,6.316,11.94s-3.043,5.624-6.546,11.617L82.449-790.62l-13.369.046H55.711L49.073-802.1,42.48-813.624l3.55-6.085c1.982-3.365,5.025-8.574,6.777-11.571l3.181-5.394,13.231.092,13.231.138Zm82.334,0c5.578,9.773,6.316,11.294,5.9,12.17-.323.553-3.411,5.855-6.869,11.8L164-790.344l-12.77.092-12.77.092-1.106-1.706c-1.613-2.489-12.262-21.206-12.262-21.575,0-.231,2.674-4.887,10.972-19.039l2.535-4.333,13.138.23,13.184.23Zm81.78.277,6.638,11.571-6.592,11.34-6.592,11.387-13.369-.138-13.323-.092-6.592-11.479-6.546-11.525.83-1.383c.83-1.337,5.993-10.188,10.6-18.163l1.936-3.319,13.184.092,13.184.138Zm81.965-.461c3.55,6.223,6.454,11.571,6.454,11.94,0,.323-2.9,5.624-6.454,11.709l-6.454,11.11H302.2l-6.546-11.387c-3.826-6.684-6.408-11.755-6.316-12.216.138-.415,3.089-5.67,6.546-11.663l6.316-10.833H328.62ZM129.7-801.823c3.411,5.993,6.408,11.294,6.638,11.755.323.645-1.06,3.365-6.177,12.17L123.569-766.6H96.693l-6.362-11.2c-3.55-6.131-6.408-11.387-6.408-11.617,0-.277,2.95-5.624,6.638-11.894L97.2-812.7h26.277Zm82.38.645,6.546,11.479-6.684,11.571-6.73,11.525H179.257l-6.592-11.525-6.592-11.479,4.241-7.284c2.3-4.011,5.348-9.22,6.731-11.571l2.489-4.241h13l13,.046Zm82.1.277,6.592,11.617-6.592,11.34L287.591-766.6l-13.323-.138-13.323-.092-6.408-11.2c-3.5-6.177-6.362-11.479-6.27-11.848.092-.323,3.043-5.578,6.592-11.709l6.454-11.11,13.138.092,13.092.138Zm71.869-11.387,4.287.277,6.454,11.248,6.454,11.2-6.777,11.709-6.823,11.709-9.911-.046c-5.44-.046-11.433-.184-13.231-.369l-3.365-.277-6.5-11.294c-5.578-9.727-6.408-11.387-5.993-12.309.553-1.245,11.986-20.883,12.631-21.713C343.74-812.748,357.939-812.886,366.052-812.287Zm93.72,12.078,6.592,11.525-.876,1.521c-.461.83-3.457,5.993-6.638,11.479l-5.762,9.957-13.369.046H426.3l-6.592-11.571c-5.071-8.851-6.5-11.755-6.223-12.355.23-.461,3.227-5.624,6.638-11.525l6.223-10.649h26.876Zm-306.792,11.94h11.663l6.5,11.433c3.55,6.27,6.5,11.617,6.5,11.8,0,.231-2.95,5.486-6.5,11.663l-6.5,11.2-13.184-.092-13.184-.138-6.638-11.617L125-765.634l4.241-7.284c10.326-17.61,9.174-15.95,10.7-15.628C140.718-788.407,146.573-788.269,152.981-788.269Zm100.174,11.11,6.592,11.571-2.812,4.933c-1.567,2.674-4.564,7.837-6.638,11.433l-3.734,6.546-13.138.046H220.286l-6.546-11.525c-3.642-6.316-6.592-11.755-6.592-12.032a64.082,64.082,0,0,1,3.227-5.993c1.8-3,4.7-7.975,6.454-11.018l3.273-5.532h26.461Zm82.149-.046c5.117,8.989,6.5,11.755,6.177,12.4-.23.461-3.227,5.624-6.638,11.525l-6.223,10.649H302.3L295.7-754.156c-3.6-6.362-6.5-11.709-6.408-11.94s3.043-5.394,6.592-11.525l6.454-11.11h26.415Zm81.919-.692c3.365,5.808,6.316,11.064,6.638,11.571.461.876-.277,2.351-6.085,12.355l-6.638,11.34H384.262l-6.5-11.433-6.5-11.479,6.731-11.571,6.777-11.617,13.184.092,13.184.138ZM130.161-753.234c4.057,7.145,6.454,11.8,6.27,12.262-.415,1.06-12.309,21.528-12.908,22.174-.415.461-3.55.507-13.415.277L97.2-718.8l-5.532-9.681c-3.043-5.348-6.039-10.557-6.638-11.663l-1.06-1.936,6.592-11.341,6.638-11.34h26.415ZM200.74-764.3h4.933l6.5,11.34c3.6,6.223,6.408,11.479,6.362,11.617-.092.184-3.135,5.44-6.777,11.755L205.165-718.2l-12.908-.092-12.862-.138-6.638-11.479c-3.6-6.362-6.5-11.617-6.454-11.755,1.982-3.5,12.216-20.929,12.862-21.9l.968-1.337,7.837.277C192.3-764.436,198.066-764.3,200.74-764.3Zm93.49,11.11c6.131,10.7,6.546,11.663,6.085,12.77-.323.645-3.273,5.809-6.546,11.479l-6.039,10.28H261.176l-6.546-11.525c-3.6-6.316-6.454-11.663-6.362-11.894.046-.231,3.043-5.44,6.592-11.525l6.454-11.156h26.277Zm81.642-.876c3.411,5.9,6.362,11.064,6.592,11.479.323.507-1.245,3.55-6.27,12.216L369.51-718.89l-13.046.138-13.092.092L336.917-730c-3.55-6.223-6.454-11.571-6.454-11.848,0-.323,2.9-5.578,6.454-11.709l6.454-11.156,13.184-.046H369.74ZM170.5-730.553c3.227,5.67,6.223,10.926,6.731,11.663l.83,1.383-6.592,11.294-6.546,11.294H138.275L131.683-706.4l-6.592-11.479,6.27-10.88c3.5-5.993,6.546-11.156,6.777-11.479.323-.415,3.6-.553,13.461-.553h13.046Zm82.748,1.291,6.592,11.525-2.9,4.979c-1.567,2.72-4.564,7.883-6.638,11.479l-3.734,6.546H220.286l-6.408-11.248c-3.5-6.177-6.408-11.387-6.454-11.525,0-.138,2.95-5.44,6.638-11.8l6.684-11.479H246.7Zm81.734-.461c3.457,6.085,6.362,11.2,6.408,11.433.092.23-2.858,5.624-6.546,11.986l-6.684,11.571-12.908.046H302.343L295.7-706.166l-6.592-11.525,4.287-7.284c2.3-4.011,5.348-9.22,6.731-11.571l2.489-4.241h26.046Zm82.38.277c3.6,6.223,6.408,11.571,6.316,11.848-.138.323-3.135,5.532-6.684,11.617l-6.454,11.064H384.077l-6.408-11.064c-3.55-6.085-6.362-11.387-6.316-11.8.092-.415,3.043-5.762,6.592-11.848l6.454-11.156h26.415Zm-329.473-1.89c2.766,4.794,5.716,10,6.546,11.525L96-717.046,89.41-705.751l-6.546,11.294-13.184.138-13.184.092L50.824-704c-3.089-5.394-6.085-10.649-6.684-11.663l-1.06-1.844,5.624-9.681c3.089-5.348,6.085-10.465,6.638-11.433l1.06-1.706,13.231.092,13.231.138Zm281.806,14.66c.645.83,12.77,22.358,12.77,22.681,0,.553-12.447,21.851-13.277,22.773-.507.507-2.858.553-13.323.277l-12.677-.369-6.5-11.248-6.454-11.248,5.809-10c3.181-5.486,6.316-10.787,6.961-11.8l1.152-1.8,12.77.369C363.932-716.861,369.694-716.677,369.694-716.677Zm82.334.277c.83.784,12.862,22.312,12.723,22.819-.092.323-3.043,5.578-6.592,11.709L451.7-670.716l-13.323-.138-13.323-.092-6.592-11.525L411.875-694l.876-1.383c.461-.738,3.365-5.762,6.454-11.064,3.089-5.348,5.809-9.911,6.039-10.188C425.659-717.138,451.428-716.953,452.028-716.4Zm-414.895-.138,4.84.323,6.362,11.11c3.5,6.131,6.362,11.294,6.362,11.571,0,.231-3,5.624-6.638,11.894L41.42-670.209,28.374-670.3l-13.046-.046-1.106-1.706c-.553-.922-3.6-6.085-6.684-11.525C2.6-692.2,1.959-693.581,2.42-694.5c.553-1.291,11.986-20.929,12.631-21.759C15.558-716.861,28.512-717.046,37.133-716.539Zm169.277,1.429c.645.968,3.734,6.27,6.869,11.8L219-693.258l-6.684,11.479-6.731,11.525h-3.918c-2.167,0-8.16-.138-13.231-.323l-9.312-.277-6.5-11.433-6.546-11.479L170.314-701c2.3-4.011,5.348-9.22,6.731-11.571l2.489-4.241H205.3Zm87.819,9.635c3.6,6.27,6.5,11.571,6.5,11.8s-2.95,5.532-6.546,11.709l-6.546,11.248-13.184-.092-13.138-.138-6.085-10.6c-3.365-5.855-6.316-11.064-6.638-11.571-.461-.876.277-2.351,6.085-12.355l6.638-11.34h26.415Zm246.632.184,6.546,11.525-6.638,11.433-6.638,11.387-13.323.092-13.323.138-6.592-11.525c-5.855-10.326-6.5-11.663-6.039-12.585,1.06-1.936,12.078-20.837,12.539-21.436.323-.415,3.642-.553,13.645-.553h13.231Zm-410.562.138c3.457,6.131,6.316,11.387,6.316,11.617,0,.277-3,5.532-6.638,11.755l-6.592,11.294-12.954.138-12.908.092-6.5-11.34c-3.6-6.223-6.5-11.571-6.5-11.848s2.95-5.532,6.5-11.709l6.546-11.2h13.184l13.184.046ZM417.177-681.5l6.684,11.617-6.823,11.617-6.777,11.663-3-.323c-1.66-.138-7.56-.277-13.046-.277h-9.957l-6.592-11.433c-3.6-6.27-6.546-11.617-6.546-11.848,0-.277,2.074-4.011,4.61-8.3,2.489-4.333,5.44-9.358,6.546-11.2l1.936-3.319,13.138.092,13.138.138ZM77.193-692.521l5.809.277,6.362,11.064c3.5,6.085,6.362,11.294,6.362,11.571,0,.6-12.4,21.9-13.184,22.727-.415.415-3.78.461-13.553.277l-13.046-.277-6.454-11.248c-3.6-6.223-6.454-11.433-6.362-11.617s3.135-5.44,6.777-11.709l6.638-11.387h7.422C68.066-692.843,74.012-692.705,77.193-692.521Zm93.858,10.741c3.457,5.947,6.362,11.2,6.454,11.617.138.461-2.443,5.394-6.362,12.124l-6.592,11.294H151.367l-13.138-.046-6.408-11.248c-4.011-7.1-6.27-11.571-6.085-12.032.23-.645,10.972-19.27,12.539-21.759l.691-1.014,12.908.092,12.908.138Zm82.149.461,6.592,11.571-6.869,11.755-6.823,11.8-3.411-.277c-1.89-.138-7.7-.277-12.908-.277h-9.5l-6.454-11.341c-3.55-6.27-6.408-11.571-6.316-11.848.092-.23,3.089-5.532,6.684-11.663l6.546-11.248h25.862ZM334.29-682.7c3.135,5.44,6.131,10.7,6.638,11.617l.968,1.66-6.592,11.34-6.546,11.341H302.3L295.7-658.269c-3.6-6.362-6.5-11.709-6.408-11.94s3.043-5.394,6.592-11.525l6.454-11.11,13.092.092,13.138.138Zm165.174,1.152c3.5,6.085,6.408,11.34,6.408,11.663s-2.95,5.624-6.546,11.848l-6.592,11.294H466.457l-6.223-10.879c-3.411-5.993-6.408-11.294-6.638-11.755-.323-.645,1.06-3.365,6.177-12.17l6.592-11.294,13.369.092,13.323.138Zm82.38.092c3.6,6.316,6.546,11.617,6.546,11.8,0,.23-2.95,5.44-6.546,11.663l-6.592,11.248H561.883l-13.369-.046-6.546-11.479-6.5-11.525,6.684-11.525,6.73-11.525H575.3Zm-287.614,23.88c3.6,6.177,6.5,11.433,6.5,11.617s-3,5.44-6.592,11.663L287.545-623l-12.954.138-12.954.092-6.5-11.294c-3.6-6.177-6.5-11.479-6.5-11.755,0-.507,2.95-5.716,10.142-17.979l3.135-5.3,12.908.138,12.954.138Zm-163.976.415,6.684,11.663-6.592,11.248L123.8-623l-13.277.092-13.323.138-6.546-11.479L84.062-645.73,90.839-657.3l6.731-11.571h26Zm80.766-2.489c2.858,4.933,5.809,10.142,6.592,11.525l1.475,2.535L212.5-634.3,205.949-623H179.3l-6.592-11.479c-5.716-10-6.5-11.571-6.039-12.447,1.014-1.936,12.032-20.791,12.493-21.39.323-.415,3.411-.553,13.6-.461l13.138.138Zm165.174,2.3,6.546,11.525L376.01-634.3l-6.684,11.525H343.371l-6.592-11.571-6.592-11.571,3.55-6.039c1.936-3.365,4.979-8.528,6.73-11.525l3.181-5.394h13l13,.046Zm82.2-.138c3.55,6.27,6.408,11.617,6.362,11.894-.092.323-3.043,5.578-6.592,11.663L451.7-622.772H425.336l-6.684-11.663L412.013-646.1l5.209-8.989c2.9-4.933,5.855-10.05,6.592-11.387l1.383-2.4h26.645Zm82.38.323,6.546,11.479-6.592,11.34L534.085-623l-13.277.092-13.323.138-6.454-11.34c-3.55-6.223-6.454-11.525-6.454-11.848s2.9-5.578,6.454-11.709l6.454-11.2,13.323.138,13.369.092ZM328.942-644.485c.6.553,12.816,22.174,12.816,22.681,0,.277-2.95,5.578-6.546,11.755L328.666-598.8h-26l-6.777-11.8-6.73-11.755,6.316-10.926c3.5-5.993,6.5-11.156,6.684-11.433C302.573-645.223,328.343-645.038,328.942-644.485Zm87.819,9.957c3.365,5.809,6.316,11.018,6.592,11.525.415.83-.461,2.582-6.27,12.631l-6.777,11.663-12.908-.184-12.862-.138-6.592-11.525C372.091-620.7,371.4-622.127,371.861-623c.323-.553,3.365-5.808,6.777-11.709l6.223-10.741,12.908.184,12.908.138Zm-327.536,1.06c3.5,6.177,6.362,11.479,6.27,11.8s-3.043,5.624-6.592,11.709L82.449-598.8l-13.323-.138L55.8-599.031l-6.592-11.525c-5.9-10.28-6.546-11.617-5.993-12.447.323-.507,3.319-5.624,6.684-11.433L56.034-644.9l13.369.092,13.415.138Zm81.273-1.2c3.227,5.67,6.223,10.926,6.684,11.663l.876,1.383-6.592,11.294-6.592,11.294-13.323.092-13.323.138-6.546-11.525L125.091-621.8l6.731-11.525,6.731-11.571h26.092Zm72.837-9.957,3.688.323,6.592,11.525,6.546,11.525-6.592,11.34-6.592,11.34-9.22.138c-5.025.046-11.018-.046-13.323-.231l-4.1-.369-6.546-11.387-6.5-11.387,6.73-11.525L220.7-644.9h9.5C235.406-644.9,241.307-644.762,243.336-644.623Zm255.206,9.5c3.089,5.394,6.085,10.649,6.638,11.663l1.06,1.844-6.684,11.387L492.918-598.8H466.411l-6.592-11.525c-3.6-6.362-6.5-11.709-6.408-11.94s3.043-5.394,6.592-11.525l6.454-11.11h26.415ZM458.3-609.634c5.716,9.911,6.546,11.617,6.131,12.539-.784,1.752-12.124,21.067-12.723,21.759-.461.507-2.9.553-13.461.277l-12.862-.369-6.223-10.833c-3.365-5.947-6.362-11.156-6.546-11.617-.323-.6,1.245-3.6,6.223-12.17l6.592-11.34,13.138.138,13.138.092Zm-327.813.461c5.947,10.372,6.5,11.571,5.947,12.447-.323.507-3.319,5.624-6.684,11.387l-6.131,10.511H97.062l-6.5-11.34c-3.6-6.27-6.5-11.525-6.5-11.755s2.95-5.532,6.592-11.709L97.2-620.928l13.323.138,13.369.092Zm82.1-.184,6.592,11.571-6.638,11.34L205.9-575.059l-13.138.138-13.184.092-6.546-11.387c-3.826-6.684-6.408-11.755-6.316-12.216.138-.415,3.089-5.67,6.546-11.663l6.316-10.833h13.231l13.184.046Zm81.642-.23c3.6,6.269,6.5,11.571,6.5,11.894,0,.277-2.95,5.532-6.592,11.709l-6.546,11.2-12.908-.046c-7.1,0-13.046-.184-13.231-.369-.138-.184-3.135-5.255-6.592-11.294-3.78-6.592-6.177-11.248-6.039-11.709.277-.6,11.018-19.27,12.539-21.713.645-1.014.691-1.014,13.507-1.014h12.862Zm82.2.415,6.731,11.755-6.546,11.2-6.546,11.156H343.417l-6.592-11.479c-3.6-6.316-6.5-11.617-6.408-11.755.23-.415,6.408-11.018,9.957-17.1l3.273-5.532h26.046ZM171.559-585.155l6.592,11.617-6.592,11.34-6.592,11.34L151.644-551l-13.323-.092-6.592-11.433L125.183-574l1.245-2.121c.691-1.2,3.688-6.362,6.684-11.525l5.44-9.312,13.184.092,13.184.138Zm82.057-.277,6.546,11.571-6.638,11.387-6.638,11.387-13.092.138-13.138.092-6.408-11.156c-3.5-6.131-6.454-11.433-6.546-11.755-.092-.369,2.766-5.716,6.408-11.894l6.546-11.294h26.369Zm81.919-.138c3.55,6.27,6.408,11.571,6.316,11.848s-3.089,5.532-6.684,11.663l-6.5,11.2h-26l-6.546-11.387c-3.55-6.27-6.362-11.663-6.223-12.032.23-.6,11.064-19.362,12.493-21.667.645-1.014.691-1.014,13.691-1.014l13,.046Zm81.965.369,6.684,11.709-6.546,11.2-6.5,11.2h-26.6l-6.408-11.064c-3.5-6.085-6.362-11.34-6.408-11.663,0-.369,2.95-5.716,6.546-11.894l6.546-11.248h25.954ZM130.484-561.46l6.592,11.525-6.731,11.525-6.73,11.525H97.154l-6.592-11.571c-5.071-8.851-6.5-11.755-6.223-12.355.23-.461,3.227-5.624,6.638-11.525L97.2-572.985h26.738Zm82.011.046L219-550.12,212.265-538.5l-6.731,11.617-13.092-.138-13.092-.092-6.408-11.2c-3.5-6.177-6.362-11.479-6.27-11.8s3.043-5.578,6.592-11.709l6.454-11.156,13.138.138,13.138.092Zm82.1.138,6.546,11.479-1.106,1.89c-.6,1.06-3.6,6.131-6.592,11.34l-5.532,9.45H261.36l-6.546-11.433-6.546-11.433L255-561.506l6.684-11.479,13.184.092,13.138.138Zm81.965-.369c3.55,6.269,6.408,11.571,6.316,11.848-.092.23-3.089,5.486-6.638,11.663l-6.546,11.248h-26l-6.131-10.741c-3.365-5.855-6.408-11.11-6.731-11.617-.507-.876,0-1.982,5.44-11.294,3.319-5.716,6.316-10.833,6.684-11.433.645-1.014.691-1.014,13.922-1.014h13.231Zm82.334-.046c3.5,6.085,6.362,11.294,6.362,11.525.046.277-2.9,5.578-6.546,11.755l-6.546,11.294H425.521l-6.362-11.064c-3.5-6.085-6.362-11.34-6.362-11.663-.046-.323,2.9-5.67,6.5-11.894l6.546-11.248,13.323.092,13.369.138Zm-41.351,23.88c3.55,6.131,6.408,11.387,6.408,11.617,0,.277-2.95,5.624-6.592,11.894l-6.638,11.387H384.4l-6.592-11.525c-5.9-10.372-6.546-11.617-6.039-12.539,1.429-2.72,12.124-20.975,12.677-21.575.507-.6,2.489-.692,13.645-.553l13.046.138Zm-245.94.369,6.638,11.571-.876,1.521c-.461.784-3.457,5.947-6.638,11.433l-5.762,9.957H151.6l-13.369.046-6.592-11.525-6.592-11.479,4.241-7.284c2.3-4.011,5.348-9.22,6.731-11.571l2.489-4.241h26.461Zm81.873-.23c3.55,6.223,6.454,11.433,6.408,11.571,0,.138-3,5.394-6.684,11.709l-6.638,11.479-12.954-.046c-11.617,0-13.046-.092-13.645-.784-.691-.83-12.262-20.929-12.447-21.713-.092-.231,2.858-5.624,6.546-11.986l6.684-11.571h26.277Zm82.057.092c3.55,6.223,6.454,11.571,6.454,11.894,0,.277-2.9,5.532-6.454,11.663l-6.454,11.11-13.323-.092-13.323-.138-6.546-11.479L289.3-526.1l2.858-4.887c1.567-2.674,4.61-7.837,6.684-11.479l3.826-6.546,13.184.046h13.231Zm164.621.231,6.5,11.433-6.684,11.479-6.684,11.525H466.78l-6.5-11.34c-3.6-6.27-6.5-11.571-6.5-11.8s2.95-5.532,6.546-11.709l6.546-11.248,13.369.092,13.369.138ZM282.29-525.226l5.809.323,6.546,11.387,6.546,11.433-6.73,11.571-6.731,11.571-7.883-.046c-4.379-.046-10.418-.184-13.415-.369l-5.532-.277L254.538-490.7c-3.457-6.085-6.362-11.2-6.362-11.433,0-.184,3.043-5.532,6.731-11.848l6.73-11.525h7.422C273.162-525.5,279.109-525.364,282.29-525.226Zm162.5.184h7.422l6.592,11.525,6.592,11.525-6.684,11.433-6.638,11.387-13.184.138-13.231.092-1.06-1.706c-2.9-4.564-12.309-21.436-12.17-21.713.092-.184,3.181-5.486,6.823-11.8l6.638-11.479,5.762.323C434.833-525.18,440.733-525.042,444.79-525.042Z" transform="translate(0)"/>
  </g>
</svg>
