<svg xmlns="http://www.w3.org/2000/svg" width="135.003" height="19" viewBox="0 0 135.003 19">
  <g id="Group_3337" data-name="Group 3337" transform="translate(-7)">
    <g id="Group_29" data-name="Group 29" transform="translate(34.003)">
      <text id="Rädda_bina_2021" data-name="Rädda bina 2021" transform="translate(0 14)" font-size="13" font-family="Poppins-Bold, Poppins" font-weight="700"><tspan x="0" y="0">Rädda bina 2021</tspan></text>
    </g>
    <path id="Icon_material-copyright" data-name="Icon material-copyright" d="M9.954,10.625a2.2,2.2,0,0,1,.258-.749,1.505,1.505,0,0,1,.508-.534,1.527,1.527,0,0,1,.783-.2,1.56,1.56,0,0,1,.542.112,1.388,1.388,0,0,1,.448.31,1.657,1.657,0,0,1,.293.456,1.507,1.507,0,0,1,.12.551h1.541a3.081,3.081,0,0,0-.241-1.11,2.583,2.583,0,0,0-.6-.869,2.811,2.811,0,0,0-.929-.568,3.325,3.325,0,0,0-1.2-.2,3.364,3.364,0,0,0-1.463.293,2.96,2.96,0,0,0-1.033.792,3.235,3.235,0,0,0-.611,1.17,5.04,5.04,0,0,0-.207,1.411v.232a5.039,5.039,0,0,0,.2,1.411A3.129,3.129,0,0,0,8.973,14.3a2.938,2.938,0,0,0,1.033.783,3.492,3.492,0,0,0,1.463.293,3.283,3.283,0,0,0,1.136-.2,2.936,2.936,0,0,0,.929-.542,2.627,2.627,0,0,0,.637-.809,2.316,2.316,0,0,0,.258-.99H12.889a1.225,1.225,0,0,1-.129.5,1.266,1.266,0,0,1-.31.4A1.356,1.356,0,0,1,12,13.99a1.709,1.709,0,0,1-.516.086,1.462,1.462,0,0,1-.766-.2,1.505,1.505,0,0,1-.508-.534,2.249,2.249,0,0,1-.258-.757,5.8,5.8,0,0,1-.069-.861v-.232a5.734,5.734,0,0,1,.069-.869ZM11.606,3a8.606,8.606,0,1,0,8.606,8.606A8.609,8.609,0,0,0,11.606,3Zm0,15.491a6.885,6.885,0,1,1,6.885-6.885A6.894,6.894,0,0,1,11.606,18.491Z" transform="translate(4 -1.767)"/>
  </g>
</svg>
