<?xml version="1.0" encoding="utf-8"?>
<!-- Generator: Adobe Illustrator 26.0.1, SVG Export Plug-In . SVG Version: 6.00 Build 0)  -->
<svg version="1.1" id="bee" xmlns="http://www.w3.org/2000/svg" xmlns:xlink="http://www.w3.org/1999/xlink" x="0px" y="0px"
	 viewBox="0 0 300 300" style="enable-background:new 0 0 300 300;" xml:space="preserve">
<path id="small_x5F_wing_x5F_right" d="M259.78,71.53c-0.03-0.03-0.1-0.05-0.16-0.05c-0.91-0.39-1.85-0.65-2.83-0.86
	c-0.03,0.03-0.05,0-0.05,0c-2.16-0.49-4.42-0.57-6.81-0.31c-0.34,0.03-0.7,0.08-1.07,0.13c-0.05,0-0.13,0.03-0.18,0.03
	c-11.49,1.92-25.61,12.4-42.07,31.1c-4.89,5.51-9.2,10.92-12.71,15.52v0.05l-10.32,14.22c2.34,1.51,4.65,3.41,6.73,5.8
	c3.56,3.98,6.06,8.87,7.44,14.46c15.37,1.07,37.6,0.78,60.42-5.82c9.44-2.78,16.74-6.55,21.76-11.36c3.95-3.74,6.53-8.14,7.7-13.1
	c2.83-11.78-2.68-25.77-15.7-39.83c-0.52-0.62-1.2-1.3-1.98-2.08C267.24,76.71,263.34,73.17,259.78,71.53z M264.2,86.72
	c0.68,0.73,1.38,1.48,2.05,2.21c-0.03,0.03,0,0.05,0.05,0.05c0.62,0.73,1.22,1.48,1.82,2.18c1.4,1.72,2.44,3.17,2.94,3.82l0.03,0.03
	c6.42,8.97,9.15,17.47,7.59,24.18c-1.9,7.83-9.62,13.78-23.06,17.71c-14.64,4.29-29.2,5.69-41.63,5.85
	c-0.08,0.03-0.13,0.03-0.13,0.03l-9.96,1.38c-1.66-4.58-5.15-9.15-7.15-11.57l-0.1-0.1c-0.49-0.49-0.96-1.07-1.43-1.64
	c9.72-13.73,29.64-38.79,46.28-47.94c0,0,0.08-0.08,0.29-0.18c3.25-1.74,6.32-2.89,9.2-3.22c0.31-0.05,0.62-0.05,0.94-0.05
	c0.03,0.03,0.03,0.03,0.05,0c0.18-0.03,0.34-0.03,0.47-0.05c0.13,0.03,0.29,0.03,0.42,0c0.26,0.05,0.55,0.08,0.83,0.1
	c0.05,0,0.1,0,0.18,0.03c0.94,0.05,1.79,0.29,2.55,0.62c0.08,0.03,0.18,0.08,0.26,0.1C259.29,81.23,261.89,83.21,264.2,86.72z"/>
<path id="small_x5F_wing_x5F_left" d="M74.22,272.48c0.78,0.78,1.46,1.46,2.08,1.98c14.07,13.03,28.05,18.54,39.83,15.7
	c4.97-1.17,9.36-3.74,13.1-7.7c4.81-5.02,8.58-12.32,11.36-21.76c6.6-22.83,6.89-45.06,5.82-60.42c-5.59-1.38-10.48-3.87-14.46-7.44
	c-2.39-2.08-4.29-4.39-5.8-6.73l-14.22,10.32h-0.05c-4.6,3.51-10.01,7.83-15.52,12.71c-18.69,16.46-29.17,30.58-31.1,42.07
	c0,0.05-0.03,0.13-0.03,0.18c-0.05,0.36-0.1,0.73-0.13,1.07c-0.26,2.39-0.18,4.65,0.31,6.81c0,0,0.03,0.03,0,0.05
	c0.21,0.99,0.47,1.92,0.86,2.83c0,0.05,0.03,0.13,0.05,0.16C67.98,265.88,71.52,269.78,74.22,272.48z M75.05,259.22
	c-0.03-0.08-0.08-0.18-0.1-0.26c-0.34-0.75-0.57-1.61-0.62-2.55c-0.03-0.08-0.03-0.13-0.03-0.18c-0.03-0.29-0.05-0.57-0.1-0.83
	c0.03-0.13,0.03-0.29,0-0.42c0.03-0.13,0.03-0.29,0.05-0.47c0.03-0.03,0.03-0.03,0-0.05c0-0.31,0-0.62,0.05-0.94
	c0.34-2.89,1.48-5.95,3.22-9.2c0.1-0.21,0.18-0.29,0.18-0.29c9.15-16.64,34.22-36.56,47.94-46.28c0.57,0.47,1.14,0.94,1.64,1.43
	l0.1,0.1c2.42,2,6.99,5.49,11.57,7.15l-1.38,9.96c0,0,0,0.05-0.03,0.13c-0.16,12.43-1.56,26.99-5.85,41.63
	c-3.93,13.44-9.88,21.16-17.71,23.06c-6.71,1.56-15.21-1.17-24.18-7.59l-0.03-0.03c-0.65-0.49-2.11-1.53-3.82-2.94
	c-0.7-0.6-1.46-1.2-2.18-1.82c0-0.05-0.03-0.08-0.05-0.05c-0.73-0.68-1.48-1.38-2.21-2.05C78.02,264.42,76.04,261.82,75.05,259.22z"
	/>
<path id="big_x5F_wing_x5F_left" d="M122.89,174.62c-10.27,3.09-23.82,7.38-37.78,12.51c-39.36,14.56-62.97,28.7-70.15,42.22
	c-7.05,13.13-7.02,25.74,0,35.57c7.59,10.61,23.17,16.61,37,14.33c4.99-0.83,9.88-1.87,14.9-3.56c0.18-0.08,0.36-0.1,0.55-0.18
	c0.49-0.18,0.99-0.36,1.53-0.55c0.08-0.03,0.18-0.08,0.26-0.1c0.6-0.23,1.22-0.49,1.85-0.75c0.08-0.03,0.18-0.08,0.29-0.13
	c4.21-1.82,10.97-5.3,18.54-11.21c0.81-0.65,1.66-1.35,2.52-2.05c3.28-2.81,6.71-6.03,10.3-9.83c7.67-8.03,16.12-18.51,25.64-32.19
	c0,0,0.65-0.91,1.64-2.37c0.55-0.81,1.09-1.61,1.66-2.44c0.18-0.29,0.36-0.57,0.55-0.86c3.09-4.76,7.1-11.36,7.9-15.08
	c-2.26-1.22-4.37-2.65-6.24-4.32C126.97,187.6,124.11,179.9,122.89,174.62z M123.88,191.57c0.83,2.6,4.68,7.8,4.68,7.8l-0.03,0.03
	c0.34,0.29,0.68,0.62,0.96,0.96c-15.86,24.34-28.57,39.86-39.23,49.84l-0.13,0.13c-0.42,0.42-0.86,0.81-1.3,1.25
	c-15.52,14.64-29.61,17.03-31.3,17.26c-0.13,0.03-0.18,0.03-0.18,0.03c-2.37,0.49-4.68,0.88-6.92,1.25
	c-10.37,1.74-22.39-2.78-27.98-10.61c-4.94-6.86-4.73-15.81,0.6-25.82c9.7-18.02,59.57-36.95,94.98-47.97
	C120.5,184.97,123.07,188.95,123.88,191.57z"/>
<path id="big_x5F_wing_x5F_right" d="M191.47,138.32c1.66,1.87,3.09,3.98,4.32,6.24c3.72-0.81,10.32-4.81,15.08-7.9
	c0.29-0.18,0.57-0.36,0.86-0.55c0.83-0.57,1.64-1.12,2.44-1.66c1.46-0.99,2.37-1.64,2.37-1.64c13.68-9.52,24.15-17.97,32.19-25.64
	c3.8-3.59,7.02-7.02,9.83-10.3c0.7-0.86,1.4-1.72,2.05-2.52c5.9-7.57,9.39-14.33,11.21-18.54c0.05-0.1,0.1-0.21,0.13-0.29
	c0.26-0.62,0.52-1.25,0.75-1.85c0.03-0.08,0.08-0.18,0.1-0.26c0.18-0.55,0.36-1.04,0.55-1.53c0.08-0.18,0.1-0.36,0.18-0.55
	c1.69-5.02,2.73-9.91,3.56-14.9c2.29-13.83-3.72-29.41-14.33-37c-9.83-7.02-22.44-7.05-35.57,0c-13.52,7.18-27.66,30.78-42.22,70.15
	c-5.12,13.96-9.41,27.51-12.51,37.78C177.74,128.59,185.43,131.45,191.47,138.32z M183.56,122.51
	c11.02-35.41,29.95-85.28,47.97-94.98c10.01-5.33,18.95-5.54,25.82-0.6c7.83,5.59,12.35,17.6,10.61,27.98
	c-0.36,2.24-0.75,4.55-1.25,6.92c0,0,0,0.05-0.03,0.18c-0.23,1.69-2.63,15.78-17.26,31.3c-0.44,0.44-0.83,0.88-1.25,1.3l-0.13,0.13
	c-9.98,10.66-25.51,23.37-49.84,39.23c-0.34-0.29-0.68-0.62-0.96-0.96l-0.03,0.03c0,0-5.2-3.85-7.8-4.68
	C186.79,127.55,182.81,124.98,183.56,122.51z"/>
<path id="antenna_x5F_left" d="M39.07,128.01c-1.79,0.7-2.65,2.7-1.98,4.47c0.7,1.79,2.7,2.65,4.47,1.98
	c28.81-11.18,50.65-7.54,66.04-0.1l1.95-6.42C92.76,120.03,69.31,116.23,39.07,128.01z"/>
<path id="body" d="M251.78,196.21c-18.38-20.88-46.18-24.08-56.32-24.5c0.6-12.35-2.31-22.23-8.71-29.51
	c-7.41-8.39-17.34-10.79-22.2-11.49c-1.95-9.23-6.27-15.47-12.9-18.61c-6.05-2.89-13.02-2.58-19.24-1.2l-0.02-0.03
	c-2.37,0.55-4.81,1.38-6.45,1.93c-1.12,0.39-1.82,0.67-1.82,0.67c-4.81,1.85-8.11,3.8-8.48,4.01l-0.78,0.41l-0.41,0.78
	c-0.18,0.34-2.19,3.75-4.11,8.64c-0.05,0.1-0.16,0.41-0.31,0.83c-0.5,1.58-1.48,4.91-1.95,6.42c0,0.05-0.03,0.13-0.03,0.18
	c-0.1,0.42-0.18,0.7-0.18,0.7c-1.38,6.22-1.66,13.16,1.22,19.22c3.15,6.63,9.39,10.94,18.62,12.89c0.7,4.87,3.09,14.8,11.49,22.21
	c7.28,6.39,17.16,9.31,29.51,8.71c0.41,10.14,3.61,37.93,24.46,56.34c16.67,14.69,40.49,19.73,70.75,15l2.5-0.36l0.39-2.53
	C271.54,236.66,266.49,212.85,251.78,196.21z M148.69,118.34c4.68,2.23,7.8,7.07,9.2,14.4l-3.87,3.87
	c-3.67-2.67-11.39-9.1-17.94-19.34C140.5,116.54,145,116.57,148.69,118.34z M119.96,122.94c2.16-1.17,5.51-2.76,9.36-4.01
	c6.89,11.52,15.24,19.04,19.81,22.57l-9.98,9.99c-3.59-4.63-11.23-13.11-22.93-20.02C117.59,127.49,119.21,124.37,119.96,122.94z
	 M129.74,160.9c-7.34-1.41-12.17-4.53-14.41-9.21c-1.92-4.1-1.84-8.97-0.96-13.59c5.43,3.4,9.78,7.12,13.1,10.45
	c3.2,3.2,5.44,6,6.76,7.85L129.74,160.9z M143.83,184.61c-7.18-6.29-8.92-15.26-9.36-18.67l28.47-28.47
	c3.4,0.44,12.37,2.19,18.64,9.39c5.61,6.39,7.9,15.6,6.76,27.45c-4.4,12.41-15.06,16.41-16.93,17.03
	C159.53,192.46,150.28,190.23,143.83,184.61z M175.57,197.12c2.71-1.1,7.05-3.41,11.16-7.52c2.78-2.78,5.46-6.39,7.38-11.02
	c1.87,0.05,4.84,0.26,8.45,0.75l-26.23,26.24C175.83,201.95,175.65,199.01,175.57,197.12z M178.46,216.48l34.99-34.99
	c3.05,0.81,6.24,1.82,9.49,3.15l-41.34,41.33C180.3,222.7,179.29,219.5,178.46,216.48z M190.86,242.3c-1.9-2.42-3.54-4.94-5.02-7.51
	l45.94-45.94c2.55,1.45,5.1,3.12,7.49,5.04L190.86,242.3z M197.8,249.66c-0.23-0.23-0.41-0.42-0.65-0.6l-0.02,0.03l-0.3-0.3
	c0.1,0.09,0.21,0.18,0.32,0.27l48.88-48.88c0.21,0.21,0.42,0.42,0.6,0.65c1.77,2.03,3.41,4.19,4.89,6.5l-47.22,47.22
	C201.99,253.07,199.83,251.43,197.8,249.66z M212.86,259.05l43.18-43.19c1.25,2.96,2.32,6.11,3.15,9.39l-36.95,36.94
	C218.97,261.36,215.82,260.29,212.86,259.05z M260.33,263.36c-9.75,1.33-18.74,1.59-26.96,0.76l27.72-27.72
	C261.94,244.59,261.68,253.59,260.33,263.36z"/>
<path id="antenna_x5F_right" d="M130.13,39.45c-1.77-0.68-3.8,0.21-4.47,1.98c-11.83,30.39-7.98,53.95,0,70.77l6.55-1.72
	c-7.62-15.42-11.44-37.44-0.1-66.56C132.78,42.16,131.92,40.15,130.13,39.45z"/>
</svg>
