<?xml version="1.0" encoding="utf-8"?>
<!-- Generator: Adobe Illustrator 26.0.1, SVG Export Plug-In . SVG Version: 6.00 Build 0)  -->
<svg version="1.1" id="Layer_1" xmlns="http://www.w3.org/2000/svg" xmlns:xlink="http://www.w3.org/1999/xlink" x="0px" y="0px"
	 viewBox="0 0 300 150" style="fill: #000000; enable-background:new 0 0 300 150;" xml:space="preserve">
<g>
	<path id="R" d="M165.52,68.85c0,0.16-0.01,0.37-0.03,0.63c-0.02,0.26-0.1,0.44-0.26,0.52c-0.17,0.09-0.28,0.24-0.33,0.45
		s-0.07,0.42-0.07,0.63s-0.01,0.4-0.03,0.56c-0.02,0.17-0.09,0.25-0.21,0.25c-0.09,0-0.16-0.02-0.21-0.07
		c-0.05-0.04-0.12-0.07-0.21-0.07c-0.09,0-0.17,0.04-0.26,0.13c-0.09,0.09-0.13,0.17-0.13,0.26s0.03,0.15,0.09,0.2
		c0.06,0.04,0.09,0.11,0.09,0.2c0,0.07-0.13,0.15-0.39,0.25c-0.26,0.1-0.56,0.19-0.89,0.29c-0.33,0.1-0.66,0.17-0.97,0.24
		s-0.52,0.09-0.63,0.09c-0.63,0-1.26-0.11-1.89-0.34c-0.63-0.23-1.24-0.44-1.83-0.63c-0.72-0.24-1.25-0.65-1.59-1.21
		c-0.34-0.56-0.59-1.19-0.75-1.89c-0.16-0.7-0.28-1.42-0.35-2.15c-0.08-0.73-0.22-1.39-0.43-1.97c-0.09-0.26-0.13-0.48-0.13-0.66
		c0-0.17,0.02-0.32,0.07-0.43c0.04-0.11,0.1-0.21,0.16-0.29c0.06-0.08,0.11-0.15,0.16-0.21s0.07-0.13,0.07-0.2
		c0-0.21-0.06-0.42-0.18-0.63s-0.18-0.49-0.18-0.84c0-0.19,0-0.38,0.01-0.56c0.01-0.18,0.01-0.37,0.01-0.56
		c0-0.65-0.06-1.18-0.17-1.6c-0.11-0.42-0.27-0.8-0.47-1.15c-0.2-0.35-0.44-0.7-0.71-1.05s-0.57-0.77-0.9-1.26
		c-0.16,0.03-0.32,0.05-0.48,0.05c-0.17,0-0.34,0-0.51,0c-0.35,0-0.69-0.02-1.04-0.05c-0.34-0.03-0.69-0.05-1.04-0.05
		c-0.37,0-0.74,0.03-1.11,0.1c-0.38,0.07-0.76,0.1-1.14,0.1c-0.24,0-0.49-0.04-0.73-0.12c-0.24-0.08-0.49-0.12-0.73-0.12
		c-0.3,0-0.59,0.06-0.89,0.17c-0.3,0.11-0.57,0.27-0.81,0.47s-0.44,0.44-0.59,0.71s-0.22,0.56-0.22,0.88v0.84
		c0,1.52-0.13,3.01-0.39,4.48c-0.03,0.23-0.07,0.45-0.1,0.67c-0.03,0.22-0.05,0.45-0.05,0.69c0,0.72,0.14,1.29,0.43,1.73
		c0.29,0.44,0.64,0.79,1.06,1.06s0.88,0.49,1.39,0.67c0.51,0.17,0.97,0.35,1.39,0.54s0.77,0.41,1.06,0.67
		c0.29,0.26,0.43,0.62,0.43,1.07c0,0.17-0.03,0.34-0.09,0.48c-0.06,0.15-0.14,0.29-0.22,0.43c-0.23,0.37-0.44,0.64-0.64,0.83
		c-0.2,0.18-0.42,0.33-0.66,0.43c-0.24,0.1-0.49,0.18-0.77,0.24c-0.28,0.05-0.61,0.12-1,0.21c-0.3,0.07-0.61,0.12-0.93,0.14
		c-0.32,0.03-0.64,0.04-0.96,0.04c-0.49,0-0.97-0.06-1.44-0.17c-0.47-0.11-0.95-0.17-1.44-0.17c-0.37,0-0.74,0.03-1.11,0.09
		s-0.75,0.13-1.11,0.21c-0.37,0.08-0.73,0.15-1.1,0.21c-0.37,0.06-0.73,0.09-1.1,0.09c-0.24,0-0.51-0.03-0.8-0.08
		c-0.29-0.05-0.55-0.14-0.8-0.28c-0.24-0.13-0.45-0.3-0.62-0.51s-0.25-0.46-0.25-0.76c0-0.24,0.06-0.46,0.18-0.66
		c0.12-0.19,0.28-0.36,0.48-0.5c0.2-0.14,0.42-0.25,0.64-0.34c0.23-0.09,0.45-0.14,0.66-0.16c0.19-0.02,0.35-0.03,0.48-0.03
		c0.13,0,0.24-0.02,0.34-0.05c0.1-0.03,0.2-0.09,0.3-0.16c0.1-0.07,0.23-0.17,0.37-0.31c0.09-0.09,0.17-0.16,0.25-0.21
		s0.18-0.08,0.3-0.08c0.09,0,0.17,0.01,0.26,0.03c0.09,0.02,0.17,0.03,0.26,0.03c0.14,0,0.28-0.04,0.42-0.13
		c0.37-0.21,0.63-0.48,0.79-0.81s0.26-0.69,0.31-1.09s0.08-0.8,0.09-1.22c0.01-0.42,0.06-0.8,0.14-1.15
		c0.09-0.38,0.13-0.74,0.13-1.07c0-0.61-0.07-1.21-0.22-1.81c-0.15-0.59-0.22-1.2-0.22-1.81c0-0.73,0.05-1.47,0.16-2.2
		s0.16-1.47,0.16-2.2c0-0.19,0-0.38-0.01-0.55c-0.01-0.17-0.01-0.36-0.01-0.55c0-1.26,0.08-2.5,0.24-3.72
		c0.16-1.22,0.24-2.46,0.24-3.72c0-0.35-0.01-0.69-0.03-1.02c-0.02-0.33-0.04-0.67-0.08-1.02c-0.03-0.28-0.07-0.62-0.1-1.04
		s-0.09-0.83-0.16-1.27c-0.07-0.44-0.16-0.87-0.28-1.31c-0.11-0.44-0.27-0.83-0.47-1.17c-0.2-0.34-0.45-0.62-0.73-0.84
		c-0.29-0.22-0.63-0.33-1.04-0.33c-0.09,0-0.18,0.01-0.28,0.03c-0.1,0.02-0.19,0.03-0.28,0.03c-0.19,0-0.35-0.06-0.47-0.17
		c-0.12-0.11-0.22-0.25-0.29-0.42s-0.12-0.35-0.14-0.54s-0.04-0.36-0.04-0.5c0-0.59,0.15-1.03,0.46-1.31
		c0.31-0.28,0.68-0.47,1.13-0.58c0.45-0.1,0.93-0.15,1.44-0.14c0.52,0.01,0.97,0,1.38-0.04c0.45-0.03,0.9-0.11,1.35-0.24
		s0.9-0.18,1.38-0.18c0.68,0,1.35,0.09,2.02,0.26c0.66,0.17,1.34,0.26,2.02,0.26c0.56,0,1.1-0.05,1.63-0.14
		c0.52-0.1,1.05-0.23,1.57-0.41c0.26-0.09,0.5-0.13,0.71-0.13c0.68,0,1.35,0.09,2.02,0.26c0.66,0.17,1.33,0.28,1.99,0.31
		c0.45,0.03,0.93,0.12,1.42,0.25s0.95,0.31,1.38,0.55c0.43,0.24,0.8,0.54,1.11,0.9c0.31,0.37,0.52,0.8,0.6,1.28
		c0.05,0.3,0.17,0.58,0.37,0.85c0.19,0.27,0.4,0.52,0.62,0.73c0.22,0.22,0.41,0.42,0.58,0.6c0.17,0.18,0.25,0.34,0.25,0.46
		s-0.06,0.21-0.17,0.28c-0.11,0.06-0.17,0.16-0.17,0.3c0,0.09,0.06,0.18,0.17,0.29c0.11,0.1,0.24,0.23,0.38,0.37
		c0.14,0.14,0.27,0.29,0.38,0.46c0.11,0.17,0.17,0.35,0.17,0.54c0,0.26-0.08,0.49-0.25,0.69c-0.17,0.2-0.25,0.43-0.25,0.69
		l0.05,0.08l0.37-0.1l0.05,0.05c0.07,0.28,0.1,0.57,0.09,0.88c-0.01,0.31-0.01,0.58-0.01,0.83c0,0.33-0.01,0.7-0.03,1.1
		c-0.02,0.4-0.06,0.8-0.13,1.18c-0.07,0.38-0.17,0.74-0.31,1.07s-0.34,0.59-0.6,0.79c-0.16,0.12-0.32,0.21-0.48,0.28
		c-0.17,0.06-0.33,0.13-0.48,0.21c-0.16,0.08-0.3,0.18-0.42,0.3s-0.22,0.29-0.29,0.5c-0.09,0.3-0.24,0.58-0.45,0.84
		c-0.21,0.26-0.42,0.52-0.64,0.77s-0.41,0.51-0.58,0.77s-0.25,0.55-0.25,0.87c0,0.51,0.12,0.98,0.35,1.42
		c0.24,0.44,0.45,0.88,0.64,1.34c0.19,0.47,0.33,0.95,0.42,1.43c0.09,0.48,0.15,0.97,0.2,1.45c0.04,0.49,0.08,0.98,0.1,1.47
		s0.07,0.98,0.14,1.47c0.03,0.21,0.12,0.55,0.25,1.04s0.29,0.97,0.48,1.45s0.41,0.92,0.66,1.28c0.24,0.37,0.5,0.55,0.76,0.55
		c0.23,0,0.41-0.12,0.55-0.37s0.28-0.52,0.41-0.84s0.28-0.62,0.45-0.92c0.17-0.3,0.39-0.5,0.67-0.6c0.54,0.05,0.99,0.16,1.35,0.31
		c0.36,0.16,0.63,0.37,0.83,0.64s0.33,0.6,0.41,1C165.48,67.86,165.52,68.32,165.52,68.85z M157.68,44.73
		c0-0.24-0.05-0.53-0.16-0.85c-0.1-0.32-0.24-0.65-0.39-0.98c-0.16-0.33-0.33-0.65-0.51-0.94c-0.18-0.3-0.36-0.54-0.54-0.73
		c-0.37,0-0.61-0.03-0.73-0.08c-0.12-0.05-0.2-0.12-0.24-0.2c-0.03-0.08-0.07-0.17-0.12-0.28s-0.17-0.21-0.38-0.31
		c-0.61-0.3-1.16-0.52-1.65-0.68c-0.49-0.16-1.07-0.24-1.76-0.24c-0.19,0-0.38,0.05-0.56,0.16c-0.18,0.1-0.35,0.16-0.48,0.16
		c-0.4,0-0.8-0.05-1.18-0.14c-0.38-0.1-0.78-0.14-1.18-0.14c-0.58,0-1.17,0.07-1.78,0.21c-0.4,0.1-0.8,0.2-1.21,0.29
		c-0.4,0.09-0.76,0.22-1.07,0.39c-0.31,0.17-0.57,0.41-0.77,0.71c-0.2,0.3-0.3,0.71-0.3,1.23c0,0.54,0.06,1.07,0.17,1.6
		c0.11,0.52,0.17,1.06,0.17,1.6c0,0.26-0.04,0.52-0.12,0.76c-0.08,0.24-0.16,0.48-0.25,0.72c-0.09,0.24-0.17,0.48-0.25,0.72
		c-0.08,0.24-0.12,0.5-0.12,0.76c0,0.31,0.03,0.63,0.09,0.96c0.06,0.32,0.17,0.61,0.33,0.87c0.16,0.25,0.36,0.46,0.62,0.62
		s0.57,0.24,0.96,0.24c0.37,0,0.72-0.07,1.05-0.22c0.33-0.15,0.68-0.22,1.05-0.22c0.19,0,0.38,0.05,0.55,0.14
		c0.17,0.1,0.35,0.2,0.52,0.3s0.36,0.21,0.55,0.3c0.19,0.1,0.4,0.14,0.63,0.14c0.17,0,0.34-0.02,0.5-0.07
		c0.16-0.04,0.31-0.1,0.45-0.17c0.66-0.3,1.37-0.56,2.11-0.8c0.74-0.24,1.48-0.35,2.22-0.35c0.19,0,0.42-0.11,0.68-0.33
		c0.26-0.22,0.53-0.5,0.81-0.84c0.28-0.34,0.56-0.72,0.84-1.13c0.28-0.41,0.53-0.82,0.75-1.23c0.22-0.41,0.39-0.79,0.52-1.13
		C157.62,45.19,157.68,44.92,157.68,44.73z"/>
	<path id="A" d="M195.59,71.69c-0.1,0.18-0.24,0.35-0.39,0.5c-0.16,0.15-0.33,0.27-0.52,0.37s-0.38,0.14-0.55,0.14
		c-0.12,0-0.24-0.01-0.37-0.03c-0.12-0.02-0.24-0.03-0.37-0.03c-0.16,0-0.26,0.05-0.31,0.14s-0.1,0.2-0.14,0.3
		c-0.04,0.1-0.11,0.21-0.2,0.3c-0.09,0.1-0.24,0.14-0.47,0.14c-0.14,0-0.29-0.02-0.45-0.05c-0.16-0.03-0.31-0.05-0.47-0.05
		c-0.33,0-0.65,0.07-0.96,0.2c-0.31,0.13-0.63,0.2-0.98,0.2c-0.3,0-0.74-0.05-1.34-0.14c-0.59-0.1-1.19-0.24-1.8-0.45
		c-0.6-0.2-1.13-0.45-1.59-0.73c-0.45-0.29-0.68-0.62-0.68-1.01c0-0.3,0.17-0.6,0.51-0.9s0.72-0.65,1.14-1.02
		c0.42-0.38,0.8-0.8,1.14-1.27c0.34-0.47,0.51-1.02,0.51-1.65c0-0.37-0.07-0.73-0.22-1.07c-0.15-0.35-0.34-0.68-0.56-0.98
		c-0.23-0.31-0.48-0.59-0.77-0.85c-0.29-0.26-0.56-0.51-0.83-0.73c-0.09-0.03-0.22-0.05-0.39-0.05c-0.47,0-0.94,0.05-1.42,0.14
		c-0.47,0.1-0.94,0.14-1.42,0.14c-0.24,0-0.49-0.03-0.75-0.1c-0.25-0.07-0.42-0.24-0.51-0.52c-0.45,0.23-0.91,0.44-1.36,0.64
		c-0.45,0.2-0.92,0.38-1.39,0.54c-0.3,0.1-0.51,0.18-0.64,0.24c-0.13,0.05-0.23,0.11-0.29,0.18c-0.06,0.07-0.1,0.17-0.13,0.31
		c-0.03,0.14-0.09,0.34-0.2,0.6c-0.07,0.17-0.1,0.33-0.1,0.47c0,0.14,0,0.3,0,0.47c0,0.23-0.04,0.41-0.13,0.54
		c-0.09,0.13-0.18,0.25-0.28,0.37c-0.1,0.11-0.19,0.23-0.28,0.35c-0.09,0.12-0.13,0.28-0.13,0.47c0,0.16,0.03,0.3,0.08,0.42
		l-0.03,0.13c0,0.26,0.07,0.47,0.21,0.62c0.14,0.15,0.31,0.26,0.51,0.34c0.2,0.08,0.42,0.15,0.64,0.22c0.23,0.07,0.43,0.16,0.6,0.26
		c0.17,0.1,0.35,0.28,0.51,0.51c0.17,0.24,0.31,0.49,0.45,0.76s0.24,0.54,0.33,0.81s0.13,0.5,0.13,0.69v0.13h-0.34
		c-0.7,0-1.39,0.03-2.08,0.09s-1.38,0.13-2.06,0.21s-1.37,0.15-2.06,0.21s-1.38,0.09-2.08,0.09c-0.24,0-0.6-0.01-1.06-0.03
		c-0.46-0.02-0.92-0.07-1.38-0.14c-0.45-0.08-0.85-0.21-1.19-0.39c-0.34-0.18-0.51-0.45-0.51-0.8c0-0.37,0.08-0.67,0.25-0.92
		s0.38-0.45,0.66-0.62c0.27-0.17,0.58-0.31,0.92-0.42s0.68-0.22,1.02-0.33c0.34-0.1,0.66-0.21,0.97-0.31
		c0.31-0.1,0.56-0.24,0.77-0.42c0.21-0.17,0.38-0.46,0.52-0.85s0.25-0.82,0.34-1.27s0.17-0.9,0.24-1.35
		c0.07-0.45,0.13-0.8,0.18-1.06c0.02-0.09,0.03-0.2,0.04-0.33c0.01-0.13,0.02-0.27,0.03-0.41c0.01-0.14,0.02-0.27,0.03-0.39
		c0.01-0.12,0.03-0.21,0.07-0.26c0.17-0.3,0.31-0.47,0.41-0.52c0.1-0.05,0.17-0.1,0.21-0.13s0.07-0.13,0.08-0.28
		s0.01-0.46,0.01-0.93c0-0.21,0.04-0.37,0.13-0.48c0.09-0.11,0.18-0.21,0.28-0.3s0.19-0.17,0.28-0.25c0.09-0.08,0.13-0.19,0.13-0.33
		c0-0.24-0.07-0.47-0.21-0.67c-0.14-0.2-0.21-0.42-0.21-0.67c0-0.14,0.03-0.26,0.1-0.37c0.07-0.1,0.15-0.2,0.25-0.29
		s0.18-0.18,0.25-0.28c0.07-0.1,0.1-0.21,0.1-0.35c0-0.19-0.04-0.38-0.12-0.58c-0.08-0.19-0.12-0.38-0.12-0.58
		c0-0.14,0.05-0.24,0.14-0.3s0.2-0.11,0.31-0.14c0.11-0.03,0.22-0.07,0.31-0.09s0.14-0.07,0.14-0.12c-0.05-0.1-0.15-0.16-0.29-0.16
		c-0.21,0-0.31,0.11-0.31,0.34c-0.12-0.09-0.23-0.19-0.31-0.3c-0.09-0.11-0.13-0.24-0.13-0.38c0-0.17,0.04-0.34,0.13-0.48
		c0.09-0.15,0.19-0.32,0.3-0.51c0.11-0.19,0.21-0.41,0.3-0.66c0.09-0.24,0.13-0.54,0.13-0.89c0-0.37-0.05-0.72-0.16-1.06
		c-0.1-0.34-0.16-0.69-0.16-1.04c0-0.17,0.04-0.35,0.12-0.52c0.08-0.17,0.17-0.35,0.29-0.51c0.11-0.17,0.23-0.33,0.34-0.5
		c0.11-0.17,0.2-0.35,0.25-0.54c0.1-0.33,0.16-0.68,0.17-1.05c0.01-0.37,0.02-0.73,0.03-1.1c0.01-0.37,0.03-0.73,0.08-1.09
		c0.04-0.36,0.15-0.69,0.33-1.01c0.16-0.28,0.28-0.51,0.37-0.68c0.09-0.17,0.17-0.35,0.24-0.51s0.13-0.35,0.18-0.55
		c0.05-0.2,0.1-0.47,0.16-0.8c0.09-0.51,0.22-1,0.41-1.47c0.18-0.47,0.31-0.96,0.38-1.47c0.03-0.38,0.06-0.71,0.07-0.98
		s0.05-0.51,0.13-0.72c0.08-0.21,0.22-0.39,0.42-0.55s0.51-0.31,0.93-0.47c0.45-0.16,0.91-0.27,1.36-0.33
		c0.45-0.06,0.91-0.09,1.36-0.09c0.52,0,1.07,0.03,1.63,0.08c0.05,0.3,0.17,0.56,0.34,0.8c0.17,0.24,0.36,0.47,0.56,0.69
		s0.39,0.46,0.58,0.69c0.18,0.24,0.31,0.5,0.38,0.8c0.09,0.4,0.14,0.78,0.17,1.14c0.03,0.36,0.17,0.71,0.43,1.06
		c0.12,0.19,0.18,0.42,0.18,0.68c0,0.4-0.05,0.79-0.16,1.15c-0.1,0.37-0.16,0.74-0.16,1.13c0,0.23,0.07,0.6,0.21,1.13
		s0.31,1.09,0.5,1.69s0.38,1.19,0.55,1.76c0.17,0.57,0.31,1.01,0.39,1.32c0.16,0.66,0.24,1.35,0.25,2.04
		c0.01,0.7,0.12,1.38,0.33,2.04c0.21,0.7,0.39,1.39,0.55,2.08c0.16,0.69,0.26,1.4,0.31,2.14c0.03,0.68,0.12,1.34,0.26,1.98
		c0.14,0.64,0.29,1.28,0.45,1.91c0.16,0.64,0.3,1.28,0.43,1.93s0.2,1.32,0.2,2.02c0,0.26-0.02,0.53-0.07,0.81
		c-0.04,0.28-0.16,0.52-0.35,0.73c0.37,0.44,0.78,0.91,1.25,1.42c0.46,0.51,0.92,0.91,1.38,1.21c0.17,0.1,0.45,0.18,0.81,0.24
		c0.37,0.05,0.74,0.12,1.11,0.2c0.38,0.08,0.71,0.19,1,0.34c0.29,0.15,0.43,0.36,0.43,0.64C195.74,71.32,195.69,71.51,195.59,71.69z
		 M179.6,31.31c0,0.16-0.03,0.28-0.08,0.37c-0.05,0.09-0.11,0.17-0.18,0.25s-0.14,0.17-0.21,0.26c-0.07,0.1-0.12,0.23-0.16,0.41
		c-0.4,0.51-0.79,0.88-1.15,1.11c-0.37,0.24-0.9,0.35-1.6,0.35c-0.31,0-0.56,0-0.75,0c-0.18,0-0.33-0.02-0.43-0.05
		c-0.1-0.05-0.22-0.14-0.34-0.25s-0.3-0.27-0.52-0.46c-0.1-0.05-0.21-0.1-0.33-0.16c-0.11-0.05-0.2-0.12-0.25-0.21
		c-0.09-0.14-0.14-0.28-0.16-0.43c-0.02-0.15-0.07-0.29-0.16-0.43c-0.1-0.19-0.2-0.32-0.29-0.39c-0.09-0.07-0.16-0.14-0.22-0.2
		c-0.06-0.06-0.11-0.15-0.14-0.28c-0.03-0.12-0.05-0.33-0.05-0.63c0-0.4,0.01-0.69,0.04-0.87c0.03-0.17,0.17-0.41,0.43-0.71
		c0.12-0.14,0.21-0.29,0.26-0.46s0.15-0.32,0.29-0.46c0.12-0.14,0.28-0.27,0.48-0.38s0.42-0.21,0.66-0.29
		c0.24-0.08,0.47-0.14,0.71-0.17c0.24-0.03,0.46-0.05,0.67-0.05c0.54,0,1.03,0.12,1.47,0.37c0.44,0.24,0.8,0.56,1.1,0.94
		s0.52,0.83,0.68,1.32C179.52,30.33,179.6,30.82,179.6,31.31z M184.76,57c0-0.16-0.06-0.36-0.18-0.62s-0.26-0.54-0.41-0.85
		c-0.15-0.31-0.28-0.66-0.41-1.02c-0.12-0.37-0.18-0.75-0.18-1.15c0-0.47-0.07-0.94-0.21-1.4c-0.14-0.46-0.24-0.93-0.29-1.4
		c-0.03-0.38-0.07-0.81-0.12-1.27c-0.04-0.46-0.14-0.9-0.28-1.31c-0.14-0.41-0.35-0.75-0.64-1.02s-0.7-0.41-1.25-0.41
		c-0.03,0.14-0.1,0.24-0.18,0.3c-0.09,0.06-0.19,0.11-0.3,0.16c-0.11,0.04-0.23,0.08-0.35,0.12s-0.22,0.1-0.29,0.18
		c0.02,0.05,0.03,0.13,0.03,0.24c0,0.31-0.07,0.61-0.2,0.88c-0.13,0.27-0.25,0.55-0.35,0.83c-0.12,0.3-0.21,0.61-0.25,0.93
		c-0.04,0.32-0.07,0.64-0.07,0.96c0,0.28,0.01,0.55,0.03,0.81c0.02,0.26,0.03,0.52,0.03,0.79c0,0.4-0.03,0.75-0.1,1.04
		s-0.15,0.55-0.24,0.8c-0.09,0.24-0.17,0.48-0.24,0.69c-0.07,0.22-0.1,0.45-0.1,0.69c0,0.52,0.02,0.98,0.05,1.36
		c0.03,0.38,0.11,0.7,0.24,0.96s0.3,0.45,0.52,0.58c0.23,0.13,0.54,0.2,0.94,0.2c0.28,0,0.69-0.03,1.22-0.1
		c0.53-0.07,1.07-0.19,1.6-0.35s1-0.38,1.39-0.64C184.56,57.68,184.76,57.37,184.76,57z M189.32,29.87c0,0.66-0.01,1.24-0.04,1.73
		c-0.03,0.49-0.12,0.91-0.29,1.26c-0.17,0.35-0.44,0.63-0.83,0.85c-0.38,0.22-0.93,0.39-1.65,0.51c-0.14,0.03-0.26,0.07-0.37,0.1
		c-0.1,0.03-0.23,0.05-0.37,0.05c-0.33,0-0.7-0.11-1.1-0.33c-0.4-0.22-0.77-0.49-1.11-0.83s-0.63-0.69-0.87-1.07
		c-0.24-0.38-0.35-0.73-0.35-1.05c0-0.26,0.01-0.58,0.03-0.96c0.02-0.38,0.07-0.75,0.14-1.11s0.19-0.71,0.33-1.04
		s0.33-0.57,0.58-0.75s0.52-0.29,0.83-0.35c0.31-0.06,0.58-0.16,0.83-0.3c0.1-0.03,0.21-0.05,0.31-0.05c0.54,0,1.05,0.06,1.53,0.18
		c0.48,0.12,0.9,0.32,1.26,0.59c0.36,0.27,0.64,0.62,0.84,1.04C189.22,28.77,189.32,29.27,189.32,29.87z"/>
	<path id="D" d="M226.81,56.13c0,0.52-0.05,1.13-0.16,1.82s-0.25,1.42-0.43,2.18c-0.18,0.76-0.39,1.54-0.63,2.35
		c-0.24,0.8-0.48,1.58-0.75,2.32c-0.26,0.74-0.53,1.43-0.8,2.07s-0.53,1.18-0.77,1.61c-0.1,0.17-0.27,0.35-0.48,0.54
		s-0.44,0.38-0.67,0.58c-0.23,0.2-0.43,0.4-0.6,0.59c-0.17,0.19-0.26,0.38-0.26,0.55c-0.14,0.02-0.36,0.06-0.66,0.12
		s-0.61,0.14-0.93,0.24c-0.32,0.1-0.62,0.2-0.89,0.31s-0.43,0.22-0.48,0.33c-0.19,0.37-0.31,0.61-0.35,0.73s-0.09,0.2-0.14,0.22
		c-0.05,0.03-0.15,0.03-0.3,0.03c-0.15-0.01-0.43,0.03-0.85,0.12c-0.16,0.03-0.35,0.09-0.59,0.16c-0.24,0.07-0.48,0.14-0.73,0.21
		c-0.25,0.07-0.49,0.13-0.72,0.17c-0.23,0.04-0.41,0.07-0.55,0.07c-0.38,0-0.76-0.06-1.11-0.18c-0.36-0.12-0.73-0.18-1.11-0.18
		c-0.24,0-0.46,0.03-0.66,0.1c-0.65,0.24-1.26,0.42-1.85,0.52c-0.59,0.1-1.23,0.16-1.93,0.16l-3.7-0.5
		c-0.28,0.07-0.56,0.12-0.84,0.14c-0.28,0.03-0.56,0.04-0.84,0.04c-0.35,0-0.69-0.02-1.04-0.05c-0.34-0.03-0.69-0.08-1.04-0.13
		c-0.05-0.26-0.14-0.51-0.25-0.75c-0.11-0.24-0.22-0.48-0.33-0.72c-0.1-0.24-0.2-0.49-0.29-0.75c-0.09-0.25-0.13-0.51-0.13-0.77
		c0-0.45,0.11-0.78,0.34-0.98c0.23-0.2,0.52-0.34,0.87-0.42c0.35-0.08,0.72-0.14,1.11-0.18c0.39-0.04,0.76-0.14,1.11-0.3
		c0.35-0.16,0.64-0.4,0.87-0.73c0.23-0.33,0.34-0.83,0.34-1.49c0-0.4-0.03-0.8-0.09-1.21c-0.06-0.4-0.13-0.81-0.21-1.22
		c-0.08-0.41-0.15-0.82-0.21-1.22c-0.06-0.4-0.09-0.8-0.09-1.21c0-0.3,0.03-0.59,0.08-0.88s0.08-0.58,0.08-0.88
		c0-0.54-0.04-1.08-0.12-1.61c-0.08-0.53-0.12-1.07-0.12-1.61c0-0.63,0.03-1.25,0.1-1.87s0.1-1.25,0.1-1.87
		c0-0.59-0.06-1.18-0.17-1.74c-0.11-0.57-0.17-1.16-0.17-1.77c0-0.33,0.01-0.66,0.03-1s0.03-0.66,0.03-1c0-0.38-0.02-0.76-0.05-1.11
		c-0.03-0.36-0.1-0.72-0.21-1.09c-0.12-0.44-0.19-0.87-0.21-1.28c-0.02-0.42-0.07-0.8-0.16-1.14c-0.09-0.34-0.25-0.64-0.5-0.89
		s-0.66-0.44-1.23-0.56c-0.19-0.03-0.34-0.09-0.43-0.17s-0.19-0.16-0.28-0.24c-0.09-0.08-0.2-0.15-0.33-0.22
		c-0.13-0.07-0.33-0.12-0.59-0.16c-0.77-0.1-1.15-0.53-1.15-1.28c0-0.42,0.08-0.79,0.24-1.11c0.16-0.32,0.36-0.62,0.6-0.88
		c0.24-0.26,0.52-0.5,0.83-0.72c0.31-0.22,0.61-0.44,0.9-0.67c0.45-0.35,0.88-0.56,1.28-0.64c0.4-0.08,0.83-0.12,1.28-0.12h1.13
		c0.51,0,1.01-0.02,1.51-0.07c0.5-0.04,1-0.07,1.51-0.07c0.3,0,0.6,0.02,0.9,0.05c0.31,0.03,0.61,0.1,0.9,0.18
		c0.16,0.05,0.31,0.11,0.46,0.17s0.3,0.09,0.46,0.09c0.24,0,0.45-0.07,0.63-0.22c0.17-0.15,0.33-0.22,0.47-0.22
		c0.03,0,0.05,0.02,0.05,0.05s0,0.07-0.01,0.12c-0.01,0.04-0.01,0.08-0.01,0.12c0,0.1,0.07,0.16,0.21,0.16
		c0.09,0,0.15-0.05,0.2-0.16c0.04-0.1,0.14-0.17,0.3-0.21c0.12,0.05,0.22,0.11,0.29,0.17s0.14,0.12,0.2,0.17
		c0.06,0.05,0.14,0.1,0.24,0.13s0.22,0.05,0.38,0.05c0.37,0,0.73-0.03,1.1-0.09c0.37-0.06,0.73-0.09,1.1-0.09
		c0.47,0,0.91,0.08,1.31,0.24c0.4,0.16,0.78,0.35,1.14,0.59c0.36,0.24,0.7,0.5,1.04,0.8c0.33,0.3,0.66,0.59,1,0.87
		c0.24,0.21,0.49,0.37,0.75,0.48c0.25,0.11,0.49,0.23,0.72,0.34c0.23,0.11,0.45,0.25,0.66,0.42s0.39,0.42,0.55,0.75
		c0.17,0.37,0.38,0.72,0.62,1.06c0.24,0.34,0.47,0.67,0.71,1c0.24,0.32,0.47,0.66,0.69,1c0.23,0.34,0.43,0.7,0.6,1.09
		c0.44,1,0.75,2.04,0.93,3.13c0.18,1.09,0.37,2.17,0.56,3.24c0.09,0.45,0.18,0.91,0.29,1.38c0.1,0.46,0.16,0.92,0.16,1.38
		c0,0.24-0.04,0.48-0.13,0.71c-0.09,0.23-0.13,0.46-0.13,0.71c0,0.16,0.03,0.3,0.08,0.42s0.11,0.24,0.18,0.37s0.13,0.26,0.18,0.42
		C226.78,55.74,226.81,55.92,226.81,56.13z M222.43,54.38c0-0.68-0.1-1.35-0.29-1.99s-0.49-1.25-0.89-1.81
		c0.19-0.19,0.31-0.42,0.37-0.68c0.05-0.26,0.08-0.52,0.08-0.76c0-0.26-0.01-0.52-0.04-0.79c-0.03-0.26-0.04-0.52-0.04-0.76
		c0-0.14-0.05-0.26-0.14-0.37s-0.2-0.21-0.31-0.3c-0.11-0.1-0.23-0.19-0.35-0.29c-0.12-0.1-0.21-0.21-0.26-0.35
		c-0.07-0.17-0.12-0.33-0.14-0.46s-0.05-0.26-0.07-0.38s-0.05-0.25-0.1-0.39c-0.05-0.14-0.14-0.31-0.26-0.5
		c-0.09-0.14-0.16-0.28-0.21-0.41c-0.05-0.13-0.08-0.29-0.08-0.48c0-0.17,0.03-0.36,0.08-0.55c-0.07-0.14-0.18-0.26-0.34-0.35
		c-0.16-0.1-0.33-0.17-0.52-0.22c-0.21-0.07-0.45-0.12-0.71-0.16c-0.26,0-0.54-0.08-0.83-0.24c-0.29-0.16-0.59-0.33-0.9-0.52
		c-0.31-0.19-0.63-0.37-0.96-0.52c-0.32-0.16-0.65-0.24-0.98-0.24c-0.51,0-1,0.04-1.49,0.13c-0.49,0.09-0.99,0.17-1.49,0.24
		c-0.38,0.05-0.8,0.08-1.26,0.09c-0.45,0.01-0.88,0.06-1.27,0.14s-0.72,0.25-0.98,0.48c-0.26,0.24-0.39,0.61-0.39,1.11
		c0,0.61,0.04,1.23,0.12,1.86c0.08,0.63,0.12,1.28,0.12,1.94c0,1.38-0.06,2.76-0.17,4.13c-0.11,1.37-0.17,2.76-0.17,4.15
		c0,0.65,0.03,1.29,0.1,1.93s0.1,1.29,0.1,1.95c0,0.86-0.07,1.7-0.2,2.54c-0.13,0.84-0.2,1.69-0.2,2.54c0,0.35,0,0.73,0,1.13
		s0.03,0.79,0.1,1.15s0.2,0.7,0.39,1s0.48,0.52,0.87,0.66c0.54,0.19,1.08,0.38,1.61,0.56s1.1,0.28,1.69,0.28
		c0.35,0,0.69-0.08,1.02-0.25c0.33-0.17,0.67-0.3,1.02-0.41c0.23-0.07,0.48-0.14,0.77-0.2c0.29-0.06,0.57-0.13,0.85-0.21
		c0.28-0.08,0.55-0.18,0.8-0.31c0.25-0.13,0.47-0.29,0.64-0.48c0.26-0.3,0.52-0.56,0.76-0.79s0.59-0.38,1.02-0.47
		c0.21-0.03,0.35-0.11,0.41-0.22c0.06-0.11,0.1-0.24,0.13-0.39c0.03-0.15,0.07-0.31,0.12-0.47c0.05-0.17,0.17-0.31,0.34-0.43
		c0.28-0.21,0.49-0.45,0.64-0.73c0.15-0.28,0.26-0.58,0.33-0.89c0.07-0.31,0.13-0.63,0.17-0.96s0.11-0.64,0.2-0.96
		c0.19-0.7,0.42-1.41,0.67-2.12c0.25-0.72,0.38-1.44,0.38-2.18c0-0.19-0.04-0.36-0.13-0.51c-0.09-0.15-0.13-0.32-0.13-0.51
		c0-0.1,0.02-0.17,0.07-0.2c0.04-0.03,0.09-0.06,0.14-0.1s0.1-0.11,0.14-0.2C222.41,54.79,222.43,54.62,222.43,54.38z"/>
	<path id="D_00000160154279630656803390000013453305310409369787_" d="M260.23,56.13c0,0.52-0.05,1.13-0.16,1.82
		s-0.25,1.42-0.43,2.18c-0.18,0.76-0.39,1.54-0.63,2.35c-0.24,0.8-0.48,1.58-0.75,2.32c-0.26,0.74-0.53,1.43-0.8,2.07
		s-0.53,1.18-0.77,1.61c-0.1,0.17-0.27,0.35-0.48,0.54c-0.22,0.18-0.44,0.38-0.67,0.58c-0.23,0.2-0.43,0.4-0.6,0.59
		c-0.17,0.19-0.26,0.38-0.26,0.55c-0.14,0.02-0.36,0.06-0.66,0.12s-0.61,0.14-0.93,0.24c-0.32,0.1-0.62,0.2-0.89,0.31
		s-0.43,0.22-0.48,0.33c-0.19,0.37-0.31,0.61-0.35,0.73s-0.09,0.2-0.14,0.22c-0.05,0.03-0.15,0.03-0.3,0.03
		c-0.15-0.01-0.43,0.03-0.85,0.12c-0.16,0.03-0.35,0.09-0.59,0.16c-0.24,0.07-0.48,0.14-0.73,0.21c-0.25,0.07-0.49,0.13-0.72,0.17
		c-0.23,0.04-0.41,0.07-0.55,0.07c-0.38,0-0.76-0.06-1.11-0.18c-0.36-0.12-0.73-0.18-1.11-0.18c-0.24,0-0.46,0.03-0.66,0.1
		c-0.65,0.24-1.26,0.42-1.85,0.52c-0.59,0.1-1.23,0.16-1.93,0.16l-3.7-0.5c-0.28,0.07-0.56,0.12-0.84,0.14
		c-0.28,0.03-0.56,0.04-0.84,0.04c-0.35,0-0.69-0.02-1.04-0.05c-0.34-0.03-0.69-0.08-1.04-0.13c-0.05-0.26-0.14-0.51-0.25-0.75
		c-0.11-0.24-0.22-0.48-0.33-0.72c-0.1-0.24-0.2-0.49-0.29-0.75c-0.09-0.25-0.13-0.51-0.13-0.77c0-0.45,0.11-0.78,0.34-0.98
		c0.23-0.2,0.52-0.34,0.87-0.42c0.35-0.08,0.72-0.14,1.11-0.18c0.39-0.04,0.76-0.14,1.11-0.3c0.35-0.16,0.64-0.4,0.87-0.73
		s0.34-0.83,0.34-1.49c0-0.4-0.03-0.8-0.09-1.21c-0.06-0.4-0.13-0.81-0.21-1.22c-0.08-0.41-0.15-0.82-0.21-1.22
		c-0.06-0.4-0.09-0.8-0.09-1.21c0-0.3,0.03-0.59,0.08-0.88s0.08-0.58,0.08-0.88c0-0.54-0.04-1.08-0.12-1.61
		c-0.08-0.53-0.12-1.07-0.12-1.61c0-0.63,0.03-1.25,0.1-1.87c0.07-0.62,0.1-1.25,0.1-1.87c0-0.59-0.06-1.18-0.17-1.74
		c-0.11-0.57-0.17-1.16-0.17-1.77c0-0.33,0.01-0.66,0.03-1s0.03-0.66,0.03-1c0-0.38-0.02-0.76-0.05-1.11
		c-0.03-0.36-0.1-0.72-0.21-1.09c-0.12-0.44-0.19-0.87-0.21-1.28c-0.02-0.42-0.07-0.8-0.16-1.14c-0.09-0.34-0.25-0.64-0.5-0.89
		s-0.66-0.44-1.23-0.56c-0.19-0.03-0.34-0.09-0.43-0.17s-0.19-0.16-0.28-0.24c-0.09-0.08-0.2-0.15-0.33-0.22
		c-0.13-0.07-0.33-0.12-0.59-0.16c-0.77-0.1-1.15-0.53-1.15-1.28c0-0.42,0.08-0.79,0.24-1.11c0.16-0.32,0.36-0.62,0.6-0.88
		c0.24-0.26,0.52-0.5,0.83-0.72c0.31-0.22,0.61-0.44,0.9-0.67c0.45-0.35,0.88-0.56,1.28-0.64c0.4-0.08,0.83-0.12,1.28-0.12h1.13
		c0.51,0,1.01-0.02,1.51-0.07c0.5-0.04,1-0.07,1.51-0.07c0.3,0,0.6,0.02,0.9,0.05c0.31,0.03,0.61,0.1,0.9,0.18
		c0.16,0.05,0.31,0.11,0.46,0.17s0.3,0.09,0.46,0.09c0.24,0,0.45-0.07,0.63-0.22c0.17-0.15,0.33-0.22,0.47-0.22
		c0.03,0,0.05,0.02,0.05,0.05s0,0.07-0.01,0.12c-0.01,0.04-0.01,0.08-0.01,0.12c0,0.1,0.07,0.16,0.21,0.16
		c0.09,0,0.15-0.05,0.2-0.16s0.14-0.17,0.3-0.21c0.12,0.05,0.22,0.11,0.29,0.17s0.14,0.12,0.2,0.17c0.06,0.05,0.14,0.1,0.24,0.13
		s0.22,0.05,0.38,0.05c0.37,0,0.73-0.03,1.1-0.09c0.37-0.06,0.73-0.09,1.1-0.09c0.47,0,0.91,0.08,1.31,0.24
		c0.4,0.16,0.78,0.35,1.14,0.59c0.36,0.24,0.7,0.5,1.04,0.8c0.33,0.3,0.66,0.59,1,0.87c0.24,0.21,0.49,0.37,0.75,0.48
		c0.25,0.11,0.49,0.23,0.72,0.34c0.23,0.11,0.45,0.25,0.66,0.42c0.21,0.17,0.39,0.42,0.55,0.75c0.17,0.37,0.38,0.72,0.62,1.06
		c0.24,0.34,0.47,0.67,0.71,1c0.24,0.32,0.47,0.66,0.69,1c0.23,0.34,0.43,0.7,0.6,1.09c0.44,1,0.75,2.04,0.93,3.13
		c0.18,1.09,0.37,2.17,0.56,3.24c0.09,0.45,0.18,0.91,0.29,1.38s0.16,0.92,0.16,1.38c0,0.24-0.04,0.48-0.13,0.71
		c-0.09,0.23-0.13,0.46-0.13,0.71c0,0.16,0.03,0.3,0.08,0.42s0.11,0.24,0.18,0.37c0.07,0.12,0.13,0.26,0.18,0.42
		C260.2,55.74,260.23,55.92,260.23,56.13z M255.85,54.38c0-0.68-0.1-1.35-0.29-1.99c-0.19-0.65-0.49-1.25-0.89-1.81
		c0.19-0.19,0.31-0.42,0.37-0.68s0.08-0.52,0.08-0.76c0-0.26-0.01-0.52-0.04-0.79c-0.03-0.26-0.04-0.52-0.04-0.76
		c0-0.14-0.05-0.26-0.14-0.37s-0.2-0.21-0.31-0.3c-0.11-0.1-0.23-0.19-0.35-0.29c-0.12-0.1-0.21-0.21-0.26-0.35
		c-0.07-0.17-0.12-0.33-0.14-0.46s-0.05-0.26-0.07-0.38s-0.05-0.25-0.1-0.39c-0.05-0.14-0.14-0.31-0.26-0.5
		c-0.09-0.14-0.16-0.28-0.21-0.41c-0.05-0.13-0.08-0.29-0.08-0.48c0-0.17,0.03-0.36,0.08-0.55c-0.07-0.14-0.18-0.26-0.34-0.35
		c-0.16-0.1-0.33-0.17-0.52-0.22c-0.21-0.07-0.45-0.12-0.71-0.16c-0.26,0-0.54-0.08-0.83-0.24c-0.29-0.16-0.59-0.33-0.9-0.52
		c-0.31-0.19-0.63-0.37-0.96-0.52c-0.32-0.16-0.65-0.24-0.98-0.24c-0.51,0-1,0.04-1.49,0.13c-0.49,0.09-0.99,0.17-1.49,0.24
		c-0.38,0.05-0.8,0.08-1.26,0.09c-0.45,0.01-0.88,0.06-1.27,0.14s-0.72,0.25-0.98,0.48c-0.26,0.24-0.39,0.61-0.39,1.11
		c0,0.61,0.04,1.23,0.12,1.86c0.08,0.63,0.12,1.28,0.12,1.94c0,1.38-0.06,2.76-0.17,4.13c-0.11,1.37-0.17,2.76-0.17,4.15
		c0,0.65,0.03,1.29,0.1,1.93s0.1,1.29,0.1,1.95c0,0.86-0.07,1.7-0.2,2.54c-0.13,0.84-0.2,1.69-0.2,2.54c0,0.35,0,0.73,0,1.13
		s0.03,0.79,0.1,1.15s0.2,0.7,0.39,1s0.48,0.52,0.87,0.66c0.54,0.19,1.08,0.38,1.61,0.56s1.1,0.28,1.69,0.28
		c0.35,0,0.69-0.08,1.02-0.25c0.33-0.17,0.67-0.3,1.02-0.41c0.23-0.07,0.48-0.14,0.77-0.2c0.29-0.06,0.57-0.13,0.85-0.21
		c0.28-0.08,0.55-0.18,0.8-0.31c0.25-0.13,0.47-0.29,0.64-0.48c0.26-0.3,0.52-0.56,0.76-0.79s0.59-0.38,1.02-0.47
		c0.21-0.03,0.35-0.11,0.41-0.22c0.06-0.11,0.1-0.24,0.13-0.39c0.03-0.15,0.07-0.31,0.12-0.47c0.05-0.17,0.17-0.31,0.34-0.43
		c0.28-0.21,0.49-0.45,0.64-0.73c0.15-0.28,0.26-0.58,0.33-0.89c0.07-0.31,0.13-0.63,0.17-0.96s0.11-0.64,0.2-0.96
		c0.19-0.7,0.42-1.41,0.67-2.12c0.25-0.72,0.38-1.44,0.38-2.18c0-0.19-0.04-0.36-0.13-0.51c-0.09-0.15-0.13-0.32-0.13-0.51
		c0-0.1,0.02-0.17,0.07-0.2c0.04-0.03,0.09-0.06,0.14-0.1s0.1-0.11,0.14-0.2S255.85,54.62,255.85,54.38z"/>
	<path id="A_00000176760612445554537070000015188855550729348029_" d="M291.95,71.69c-0.1,0.18-0.24,0.35-0.39,0.5
		c-0.16,0.15-0.33,0.27-0.52,0.37s-0.38,0.14-0.55,0.14c-0.12,0-0.24-0.01-0.37-0.03c-0.12-0.02-0.24-0.03-0.37-0.03
		c-0.16,0-0.26,0.05-0.31,0.14s-0.1,0.2-0.14,0.3c-0.04,0.1-0.11,0.21-0.2,0.3c-0.09,0.1-0.24,0.14-0.47,0.14
		c-0.14,0-0.29-0.02-0.45-0.05c-0.16-0.03-0.31-0.05-0.47-0.05c-0.33,0-0.65,0.07-0.96,0.2c-0.31,0.13-0.63,0.2-0.98,0.2
		c-0.3,0-0.74-0.05-1.34-0.14c-0.59-0.1-1.19-0.24-1.8-0.45c-0.6-0.2-1.13-0.45-1.59-0.73c-0.45-0.29-0.68-0.62-0.68-1.01
		c0-0.3,0.17-0.6,0.51-0.9c0.34-0.31,0.72-0.65,1.14-1.02c0.42-0.38,0.8-0.8,1.14-1.27c0.34-0.47,0.51-1.02,0.51-1.65
		c0-0.37-0.07-0.73-0.22-1.07c-0.15-0.35-0.34-0.68-0.56-0.98c-0.23-0.31-0.48-0.59-0.77-0.85s-0.56-0.51-0.83-0.73
		c-0.09-0.03-0.22-0.05-0.39-0.05c-0.47,0-0.94,0.05-1.42,0.14c-0.47,0.1-0.94,0.14-1.42,0.14c-0.24,0-0.49-0.03-0.75-0.1
		s-0.42-0.24-0.51-0.52c-0.45,0.23-0.91,0.44-1.36,0.64s-0.92,0.38-1.39,0.54c-0.3,0.1-0.51,0.18-0.64,0.24
		c-0.13,0.05-0.23,0.11-0.29,0.18s-0.1,0.17-0.13,0.31c-0.03,0.14-0.09,0.34-0.2,0.6c-0.07,0.17-0.1,0.33-0.1,0.47
		c0,0.14,0,0.3,0,0.47c0,0.23-0.04,0.41-0.13,0.54c-0.09,0.13-0.18,0.25-0.28,0.37c-0.1,0.11-0.19,0.23-0.28,0.35
		c-0.09,0.12-0.13,0.28-0.13,0.47c0,0.16,0.03,0.3,0.08,0.42l-0.03,0.13c0,0.26,0.07,0.47,0.21,0.62s0.31,0.26,0.51,0.34
		c0.2,0.08,0.42,0.15,0.64,0.22c0.23,0.07,0.43,0.16,0.6,0.26c0.17,0.1,0.35,0.28,0.51,0.51c0.17,0.24,0.31,0.49,0.45,0.76
		s0.24,0.54,0.33,0.81s0.13,0.5,0.13,0.69v0.13h-0.34c-0.7,0-1.39,0.03-2.08,0.09c-0.69,0.06-1.38,0.13-2.06,0.21
		c-0.68,0.08-1.37,0.15-2.06,0.21c-0.69,0.06-1.38,0.09-2.08,0.09c-0.24,0-0.6-0.01-1.06-0.03c-0.46-0.02-0.92-0.07-1.38-0.14
		c-0.45-0.08-0.85-0.21-1.19-0.39c-0.34-0.18-0.51-0.45-0.51-0.8c0-0.37,0.08-0.67,0.25-0.92s0.38-0.45,0.66-0.62
		c0.27-0.17,0.58-0.31,0.92-0.42c0.34-0.11,0.68-0.22,1.02-0.33c0.34-0.1,0.66-0.21,0.97-0.31c0.31-0.1,0.56-0.24,0.77-0.42
		c0.21-0.17,0.38-0.46,0.52-0.85c0.14-0.39,0.25-0.82,0.34-1.27s0.17-0.9,0.24-1.35c0.07-0.45,0.13-0.8,0.18-1.06
		c0.02-0.09,0.03-0.2,0.04-0.33c0.01-0.13,0.02-0.27,0.03-0.41s0.02-0.27,0.03-0.39s0.03-0.21,0.07-0.26
		c0.17-0.3,0.31-0.47,0.41-0.52c0.1-0.05,0.17-0.1,0.21-0.13s0.07-0.13,0.08-0.28s0.01-0.46,0.01-0.93c0-0.21,0.04-0.37,0.13-0.48
		c0.09-0.11,0.18-0.21,0.28-0.3c0.1-0.09,0.19-0.17,0.28-0.25c0.09-0.08,0.13-0.19,0.13-0.33c0-0.24-0.07-0.47-0.21-0.67
		c-0.14-0.2-0.21-0.42-0.21-0.67c0-0.14,0.03-0.26,0.1-0.37c0.07-0.1,0.15-0.2,0.25-0.29s0.18-0.18,0.25-0.28
		c0.07-0.1,0.1-0.21,0.1-0.35c0-0.19-0.04-0.38-0.12-0.58s-0.12-0.38-0.12-0.58c0-0.14,0.05-0.24,0.14-0.3
		c0.1-0.06,0.2-0.11,0.31-0.14s0.22-0.07,0.31-0.09c0.1-0.03,0.14-0.07,0.14-0.12c-0.05-0.1-0.15-0.16-0.29-0.16
		c-0.21,0-0.31,0.11-0.31,0.34c-0.12-0.09-0.23-0.19-0.31-0.3c-0.09-0.11-0.13-0.24-0.13-0.38c0-0.17,0.04-0.34,0.13-0.48
		c0.09-0.15,0.19-0.32,0.3-0.51c0.11-0.19,0.21-0.41,0.3-0.66c0.09-0.24,0.13-0.54,0.13-0.89c0-0.37-0.05-0.72-0.16-1.06
		c-0.1-0.34-0.16-0.69-0.16-1.04c0-0.17,0.04-0.35,0.12-0.52c0.08-0.17,0.17-0.35,0.29-0.51s0.23-0.33,0.34-0.5
		c0.11-0.17,0.2-0.35,0.25-0.54c0.1-0.33,0.16-0.68,0.17-1.05s0.02-0.73,0.03-1.1c0.01-0.37,0.03-0.73,0.08-1.09
		c0.04-0.36,0.15-0.69,0.33-1.01c0.16-0.28,0.28-0.51,0.37-0.68c0.09-0.17,0.17-0.35,0.24-0.51c0.07-0.17,0.13-0.35,0.18-0.55
		c0.05-0.2,0.1-0.47,0.16-0.8c0.09-0.51,0.22-1,0.41-1.47c0.18-0.47,0.31-0.96,0.38-1.47c0.03-0.38,0.06-0.71,0.07-0.98
		s0.05-0.51,0.13-0.72c0.08-0.21,0.22-0.39,0.42-0.55c0.2-0.16,0.51-0.31,0.93-0.47c0.45-0.16,0.91-0.27,1.36-0.33
		s0.91-0.09,1.36-0.09c0.52,0,1.07,0.03,1.63,0.08c0.05,0.3,0.17,0.56,0.34,0.8c0.17,0.24,0.36,0.47,0.56,0.69
		c0.2,0.23,0.39,0.46,0.58,0.69s0.31,0.5,0.38,0.8c0.09,0.4,0.14,0.78,0.17,1.14c0.03,0.36,0.17,0.71,0.43,1.06
		c0.12,0.19,0.18,0.42,0.18,0.68c0,0.4-0.05,0.79-0.16,1.15c-0.1,0.37-0.16,0.74-0.16,1.13c0,0.23,0.07,0.6,0.21,1.13
		s0.31,1.09,0.5,1.69c0.19,0.6,0.38,1.19,0.55,1.76c0.17,0.57,0.31,1.01,0.39,1.32c0.16,0.66,0.24,1.35,0.25,2.04
		c0.01,0.7,0.12,1.38,0.33,2.04c0.21,0.7,0.39,1.39,0.55,2.08s0.26,1.4,0.31,2.14c0.03,0.68,0.12,1.34,0.26,1.98
		c0.14,0.64,0.29,1.28,0.45,1.91c0.16,0.64,0.3,1.28,0.43,1.93c0.13,0.65,0.2,1.32,0.2,2.02c0,0.26-0.02,0.53-0.07,0.81
		c-0.04,0.28-0.16,0.52-0.35,0.73c0.37,0.44,0.78,0.91,1.25,1.42c0.46,0.51,0.92,0.91,1.38,1.21c0.17,0.1,0.45,0.18,0.81,0.24
		c0.37,0.05,0.74,0.12,1.11,0.2c0.38,0.08,0.71,0.19,1,0.34c0.29,0.15,0.43,0.36,0.43,0.64C292.11,71.32,292.05,71.51,291.95,71.69z
		 M281.12,57c0-0.16-0.06-0.36-0.18-0.62c-0.12-0.25-0.26-0.54-0.41-0.85c-0.15-0.31-0.28-0.66-0.41-1.02
		c-0.12-0.37-0.18-0.75-0.18-1.15c0-0.47-0.07-0.94-0.21-1.4c-0.14-0.46-0.24-0.93-0.29-1.4c-0.03-0.38-0.07-0.81-0.12-1.27
		c-0.04-0.46-0.14-0.9-0.28-1.31c-0.14-0.41-0.35-0.75-0.64-1.02c-0.29-0.27-0.7-0.41-1.25-0.41c-0.03,0.14-0.1,0.24-0.18,0.3
		s-0.19,0.11-0.3,0.16c-0.11,0.04-0.23,0.08-0.35,0.12c-0.12,0.03-0.22,0.1-0.29,0.18c0.02,0.05,0.03,0.13,0.03,0.24
		c0,0.31-0.07,0.61-0.2,0.88s-0.25,0.55-0.35,0.83c-0.12,0.3-0.21,0.61-0.25,0.93c-0.04,0.32-0.07,0.64-0.07,0.96
		c0,0.28,0.01,0.55,0.03,0.81c0.02,0.26,0.03,0.52,0.03,0.79c0,0.4-0.03,0.75-0.1,1.04c-0.07,0.29-0.15,0.55-0.24,0.8
		c-0.09,0.24-0.17,0.48-0.24,0.69c-0.07,0.22-0.1,0.45-0.1,0.69c0,0.52,0.02,0.98,0.05,1.36c0.03,0.38,0.11,0.7,0.24,0.96
		c0.12,0.25,0.3,0.45,0.52,0.58c0.23,0.13,0.54,0.2,0.94,0.2c0.28,0,0.69-0.03,1.22-0.1c0.53-0.07,1.07-0.19,1.6-0.35
		c0.53-0.17,1-0.38,1.39-0.64C280.93,57.68,281.12,57.37,281.12,57z"/>
	<path id="B" d="M161.88,115.82c0,0.12,0,0.28,0.01,0.48c0.01,0.2,0.01,0.4,0,0.6c-0.01,0.2-0.03,0.38-0.05,0.55
		c-0.03,0.17-0.07,0.28-0.14,0.35c-0.16,0.16-0.32,0.26-0.5,0.3c-0.17,0.04-0.35,0.07-0.54,0.08c-0.18,0.01-0.37,0.03-0.55,0.05
		s-0.36,0.09-0.54,0.2c0.03,0.17,0.12,0.28,0.25,0.33c0.13,0.04,0.27,0.08,0.42,0.1s0.28,0.08,0.39,0.16
		c0.11,0.08,0.17,0.23,0.17,0.46c0,0.37-0.06,0.67-0.17,0.9c-0.11,0.24-0.25,0.45-0.41,0.63c-0.16,0.18-0.31,0.37-0.47,0.56
		c-0.16,0.19-0.28,0.44-0.37,0.73c-0.1,0.31-0.24,0.54-0.39,0.68c-0.16,0.14-0.33,0.25-0.51,0.33c-0.18,0.08-0.37,0.16-0.56,0.25
		c-0.19,0.09-0.38,0.24-0.55,0.47c-0.19,0.21-0.35,0.31-0.47,0.31c-0.05,0-0.11-0.01-0.18-0.03c-0.07-0.02-0.16-0.03-0.26-0.03
		c-0.09,0-0.17,0.03-0.25,0.09s-0.12,0.14-0.12,0.22c0,0.03,0.02,0.05,0.05,0.05s0.04,0.01,0.03,0.03
		c-0.21,0.19-0.59,0.42-1.13,0.67s-1.16,0.49-1.86,0.71c-0.7,0.22-1.43,0.4-2.19,0.55s-1.48,0.22-2.16,0.22
		c-1.19,0-2.36-0.03-3.53-0.09s-2.35-0.09-3.55-0.09h-3.49c-0.05,0-0.13,0.05-0.22,0.16c-0.1,0.1-0.21,0.16-0.33,0.16
		c-0.19,0-0.44-0.03-0.75-0.08c-0.31-0.05-0.61-0.14-0.9-0.26s-0.55-0.28-0.77-0.46s-0.33-0.4-0.33-0.64c0-0.09,0.01-0.16,0.03-0.22
		s0.03-0.14,0.05-0.22c0.16-0.49,0.38-0.86,0.66-1.11c0.28-0.25,0.58-0.47,0.9-0.66s0.66-0.37,1-0.56c0.34-0.19,0.65-0.46,0.92-0.81
		c0.27-0.35,0.49-0.82,0.67-1.42c0.17-0.59,0.26-1.39,0.26-2.39c0-0.91-0.06-1.81-0.17-2.7c-0.11-0.89-0.17-1.79-0.17-2.7
		c0.02-1.68,0.06-3.34,0.12-4.98c0.06-1.64,0.1-3.3,0.12-4.98l0.03-4.12c0-0.44-0.01-0.94-0.04-1.52s-0.11-1.13-0.26-1.66
		s-0.38-0.99-0.71-1.36c-0.32-0.38-0.78-0.59-1.38-0.64c-0.3-0.02-0.64-0.1-1.02-0.24c-0.38-0.14-0.75-0.33-1.09-0.56
		s-0.63-0.5-0.88-0.8c-0.24-0.3-0.37-0.62-0.37-0.97c0-0.3,0.09-0.55,0.26-0.75c0.17-0.2,0.38-0.37,0.63-0.5
		c0.24-0.13,0.51-0.23,0.8-0.29s0.55-0.09,0.8-0.09c0.56,0,1.11,0.06,1.65,0.17c0.54,0.11,1.1,0.17,1.68,0.17
		c0.72,0,1.44-0.03,2.16-0.1c0.73-0.07,1.45-0.15,2.16-0.25s1.44-0.18,2.16-0.25c0.73-0.07,1.45-0.1,2.19-0.1
		c0.61,0,1.22,0.02,1.83,0.07c0.61,0.04,1.22,0.08,1.83,0.12c0.1,0.14,0.29,0.25,0.55,0.34c0.26,0.09,0.55,0.17,0.85,0.24
		c0.31,0.07,0.61,0.13,0.9,0.17c0.3,0.04,0.52,0.08,0.68,0.12c0.42,0.09,0.78,0.18,1.09,0.28c0.31,0.1,0.57,0.23,0.79,0.39
		c0.22,0.17,0.41,0.38,0.58,0.64c0.17,0.26,0.32,0.6,0.46,1.02c0.02,0.05,0.1,0.13,0.25,0.24c0.15,0.1,0.32,0.21,0.51,0.31
		c0.19,0.1,0.38,0.21,0.55,0.31c0.17,0.1,0.3,0.19,0.37,0.26c0.23,0.23,0.46,0.57,0.69,1.04c0.24,0.46,0.45,0.96,0.64,1.48
		c0.19,0.52,0.35,1.04,0.47,1.55s0.18,0.92,0.18,1.23c0,0.65-0.09,1.29-0.28,1.94c-0.18,0.65-0.37,1.28-0.56,1.89
		c-0.12,0.37-0.3,0.72-0.54,1.05c-0.24,0.33-0.47,0.67-0.69,1.01c-0.23,0.34-0.42,0.69-0.59,1.04c-0.17,0.35-0.25,0.72-0.25,1.1
		c0,0.54,0.11,1.08,0.34,1.63c0.23,0.54,0.49,1.04,0.79,1.49c0.12,0.21,0.27,0.41,0.43,0.6s0.33,0.38,0.5,0.56s0.32,0.38,0.46,0.58
		s0.26,0.42,0.37,0.67c0.23,0.56,0.38,1.14,0.45,1.74S161.88,115.23,161.88,115.82z M156.92,99.81c0-0.19-0.03-0.42-0.08-0.68
		s-0.11-0.53-0.18-0.8c-0.07-0.27-0.14-0.54-0.21-0.81s-0.12-0.51-0.16-0.72c-0.05-0.26-0.13-0.48-0.24-0.64
		c-0.1-0.17-0.23-0.31-0.37-0.42s-0.3-0.23-0.47-0.34c-0.17-0.11-0.35-0.25-0.52-0.41c-0.44-0.38-0.86-0.69-1.26-0.92
		c-0.4-0.23-0.82-0.4-1.26-0.52s-0.9-0.21-1.39-0.25c-0.49-0.04-1.03-0.07-1.63-0.07c-0.38,0-0.78,0.01-1.19,0.03
		c-0.41,0.02-0.78,0.07-1.11,0.16c-0.07,0.03-0.11,0.08-0.13,0.13c-0.02,0.05-0.06,0.1-0.12,0.16c-0.06,0.05-0.17,0.1-0.33,0.14
		c-0.16,0.04-0.4,0.07-0.73,0.07c-0.51,0-0.92,0.07-1.25,0.21s-0.58,0.34-0.76,0.59c-0.18,0.25-0.31,0.56-0.38,0.92
		c-0.07,0.36-0.11,0.76-0.13,1.22c-0.02,0.58-0.03,1.17-0.04,1.78c-0.01,0.61-0.04,1.22-0.09,1.82s-0.14,1.19-0.28,1.77
		s-0.34,1.14-0.62,1.68c0.98,0.24,1.97,0.44,2.99,0.58s2.01,0.21,2.99,0.21c0.68,0,1.37-0.03,2.06-0.08
		c0.69-0.05,1.37-0.14,2.03-0.26c0.24-0.05,0.57-0.15,0.98-0.29c0.41-0.14,0.81-0.31,1.21-0.52s0.74-0.45,1.05-0.71
		c0.31-0.26,0.48-0.53,0.51-0.81c0.03-0.21,0.11-0.4,0.22-0.58c0.11-0.17,0.24-0.35,0.37-0.51c0.13-0.17,0.25-0.34,0.35-0.51
		C156.87,100.23,156.92,100.03,156.92,99.81z M157.79,117.32c0-0.45-0.06-0.91-0.17-1.36c-0.11-0.45-0.21-0.91-0.28-1.36
		c-0.05-0.42-0.1-0.75-0.14-1s-0.11-0.46-0.21-0.64c-0.1-0.18-0.23-0.36-0.41-0.54s-0.43-0.4-0.76-0.68
		c-0.09-0.38-0.18-0.61-0.28-0.68c-0.1-0.07-0.2-0.1-0.3-0.1c-0.09,0-0.18,0-0.28,0.01c-0.1,0.01-0.19,0.01-0.28,0.01l-0.37-0.73
		c-0.33-0.23-0.62-0.4-0.88-0.52c-0.25-0.12-0.58-0.2-0.98-0.24c-0.35-0.03-0.69-0.1-1.04-0.21c-0.34-0.1-0.69-0.16-1.06-0.16
		c-0.16,0-0.28,0.06-0.37,0.18c-0.09,0.12-0.16,0.18-0.21,0.18c-0.1,0-0.23-0.02-0.37-0.07c-0.14-0.04-0.29-0.09-0.45-0.13
		c-0.16-0.04-0.32-0.09-0.48-0.13c-0.17-0.04-0.32-0.07-0.46-0.07c-0.79,0-1.55,0.08-2.29,0.25c-0.74,0.17-1.49,0.35-2.24,0.54
		c-0.14,0.37-0.28,0.77-0.41,1.21c-0.13,0.44-0.25,0.88-0.35,1.34c-0.1,0.45-0.19,0.9-0.26,1.35c-0.07,0.45-0.1,0.86-0.1,1.25
		c0,0.19,0.02,0.35,0.05,0.46c0.03,0.11,0.08,0.21,0.13,0.3s0.1,0.17,0.13,0.26c0.03,0.09,0.05,0.19,0.05,0.31
		c0,0.7-0.07,1.38-0.22,2.06s-0.22,1.36-0.22,2.06c0,0.45,0.06,0.89,0.18,1.31s0.33,0.8,0.63,1.15c0.35,0,0.68,0.07,1,0.2
		c0.31,0.13,0.65,0.2,1,0.2c0.24,0,0.48-0.06,0.72-0.18c0.24-0.12,0.42-0.18,0.56-0.18c0.14,0,0.25,0.06,0.33,0.18
		c0.08,0.12,0.21,0.18,0.41,0.18h0.1c0.05-0.09,0.15-0.16,0.29-0.22c0.14-0.06,0.3-0.1,0.48-0.13c0.18-0.03,0.38-0.04,0.59-0.05
		c0.21-0.01,0.41-0.01,0.6-0.01c0.37,0,0.65,0.01,0.85,0.03c0.2,0.02,0.43,0.03,0.69,0.03c0.73-0.16,1.43-0.35,2.1-0.58
		c0.56-0.19,1.13-0.44,1.72-0.73s1.04-0.65,1.38-1.05c0.17-0.17,0.37-0.39,0.59-0.66c0.22-0.26,0.42-0.54,0.6-0.83
		c0.18-0.29,0.34-0.59,0.47-0.89C157.72,117.91,157.79,117.61,157.79,117.32z"/>
	<path id="I" d="M189.64,91.97c0,0.19-0.07,0.37-0.2,0.52c-0.13,0.16-0.29,0.31-0.47,0.46c-0.18,0.15-0.37,0.28-0.56,0.41
		s-0.35,0.24-0.47,0.34c-0.3,0.24-0.66,0.37-1.07,0.37c-0.28,0-0.55-0.03-0.8-0.1c-0.25-0.07-0.52-0.1-0.8-0.1
		c-0.12,0-0.22,0.03-0.29,0.08c-0.23,0.14-0.45,0.22-0.66,0.24c-0.21,0.02-0.44,0.03-0.68,0.03c-0.14,0-0.33-0.07-0.56-0.2
		c-0.24-0.13-0.36-0.27-0.38-0.41l0.18-0.18c-0.19,0.07-0.32,0.15-0.39,0.24s-0.12,0.18-0.14,0.29c-0.03,0.1-0.05,0.22-0.07,0.34
		c-0.02,0.12-0.06,0.24-0.13,0.37c-0.09,0.17-0.22,0.28-0.41,0.31c-0.18,0.03-0.37,0.11-0.55,0.24c-0.18,0.12-0.35,0.35-0.48,0.67
		c-0.14,0.32-0.21,0.86-0.21,1.61c0,0.33,0.02,0.66,0.05,0.97c0.03,0.31,0.05,0.63,0.05,0.94c0,0.63-0.05,1.25-0.16,1.87
		c-0.1,0.62-0.16,1.25-0.16,1.9c0,0.38-0.06,0.75-0.17,1.1c-0.11,0.35-0.17,0.72-0.17,1.1c0,0.54,0.23,0.92,0.68,1.13
		c-0.12,0.05-0.22,0.19-0.29,0.41s-0.13,0.46-0.17,0.73c-0.04,0.27-0.07,0.53-0.08,0.79c-0.01,0.25-0.01,0.43-0.01,0.54
		c0,0.07,0,0.17,0,0.29s0.01,0.25,0.03,0.38s0.03,0.25,0.05,0.37c0.02,0.11,0.05,0.2,0.1,0.25c0.14,0.14,0.21,0.31,0.21,0.52
		s-0.03,0.42-0.1,0.62c-0.07,0.2-0.1,0.41-0.1,0.62c0,0.86,0.06,1.71,0.17,2.56s0.17,1.7,0.17,2.56c0,0.56-0.06,1.12-0.17,1.68
		c-0.11,0.56-0.17,1.12-0.17,1.68c0,0.51,0.09,0.91,0.26,1.21s0.41,0.52,0.71,0.68s0.64,0.26,1.02,0.31
		c0.38,0.05,0.79,0.08,1.21,0.08c0.66,0,1.32-0.06,1.98-0.17c0.66-0.11,1.31-0.17,1.95-0.17c0.65,0,1.15,0.2,1.51,0.6
		c0.36,0.4,0.54,0.92,0.54,1.55c0,0.47-0.07,0.91-0.22,1.32c-0.15,0.41-0.36,0.77-0.63,1.07c-0.27,0.31-0.6,0.55-0.98,0.72
		c-0.38,0.17-0.82,0.26-1.31,0.26c-0.35,0-0.74-0.04-1.18-0.13c-0.7-0.14-1.4-0.24-2.1-0.3c-0.7-0.06-1.42-0.09-2.15-0.09
		c-0.61,0-1.22,0.01-1.83,0.04c-0.61,0.03-1.22,0.04-1.83,0.04c-0.73,0-1.46-0.01-2.18-0.03c-0.72-0.02-1.44-0.03-2.18-0.03
		c-0.26,0-0.52-0.04-0.76-0.13s-0.49-0.13-0.73-0.13c-0.17,0-0.38,0.03-0.6,0.09c-0.23,0.06-0.47,0.13-0.72,0.2
		c-0.25,0.07-0.52,0.14-0.8,0.2s-0.56,0.09-0.84,0.09c-0.65,0-1.21-0.14-1.68-0.43c-0.47-0.29-0.71-0.79-0.71-1.51
		c0-0.23,0.03-0.45,0.08-0.66c0.02-0.16,0.1-0.38,0.25-0.66c0.15-0.28,0.32-0.55,0.52-0.83s0.41-0.5,0.63-0.69
		c0.22-0.19,0.42-0.29,0.59-0.29c0.14,0,0.28,0.03,0.41,0.1s0.28,0.15,0.45,0.25s0.36,0.18,0.59,0.25c0.23,0.07,0.5,0.1,0.81,0.1
		c0.63,0,1.28-0.06,1.97-0.18c0.68-0.12,1.31-0.34,1.87-0.64s1.04-0.71,1.4-1.21c0.37-0.5,0.55-1.12,0.55-1.87
		c0-0.28-0.02-0.55-0.05-0.83s-0.07-0.55-0.1-0.83c-0.1-0.91-0.17-1.83-0.18-2.75c-0.02-0.93-0.03-1.85-0.03-2.78
		c0-0.61,0.08-1.2,0.24-1.77c0.16-0.57,0.24-1.16,0.24-1.77c0-0.35-0.06-0.68-0.18-1c-0.12-0.31-0.18-0.64-0.18-0.97
		c0-0.16,0.02-0.31,0.07-0.47c0.04-0.16,0.07-0.32,0.07-0.5c0-0.38-0.04-0.76-0.12-1.11c-0.08-0.36-0.12-0.72-0.12-1.09
		c0-0.61,0.07-1.22,0.2-1.83c0.13-0.61,0.2-1.22,0.2-1.83c0-0.37-0.04-0.73-0.13-1.1c-0.09-0.37-0.18-0.73-0.28-1.07
		c-0.1-0.35-0.19-0.71-0.28-1.07c-0.09-0.37-0.13-0.73-0.13-1.1c0-0.23,0.03-0.46,0.08-0.71c-0.1-0.24-0.25-0.44-0.45-0.58
		s-0.4-0.27-0.63-0.39c-0.23-0.12-0.45-0.24-0.67-0.37s-0.39-0.3-0.51-0.52c-0.14,0.02-0.23,0.08-0.26,0.2
		c-0.03,0.11-0.06,0.24-0.08,0.37c-0.02,0.13-0.05,0.25-0.09,0.37c-0.04,0.11-0.14,0.18-0.3,0.2c-0.49,0.05-0.98,0.1-1.48,0.13
		s-0.99,0.05-1.48,0.05c-0.28,0-0.62-0.02-1.04-0.05s-0.8-0.11-1.18-0.24s-0.69-0.3-0.96-0.52c-0.26-0.23-0.39-0.54-0.39-0.94
		c0-0.24,0.06-0.5,0.17-0.77c0.11-0.27,0.25-0.54,0.42-0.8c0.17-0.26,0.35-0.51,0.55-0.75c0.2-0.24,0.38-0.44,0.54-0.62
		c0.12-0.12,0.31-0.23,0.55-0.31s0.52-0.15,0.83-0.18c0.31-0.03,0.63-0.06,0.98-0.08c0.35-0.02,0.7-0.03,1.05-0.03
		c0.44,0,0.84,0,1.22,0.01c0.38,0.01,0.69,0.01,0.93,0.01c0.44,0,0.97-0.01,1.61-0.04c0.64-0.03,1.25-0.07,1.83-0.12
		c0.59-0.05,1.09-0.11,1.52-0.17c0.43-0.06,0.65-0.13,0.67-0.2c0.1,0.05,0.23,0.14,0.38,0.25c0.15,0.11,0.31,0.22,0.47,0.33
		s0.33,0.2,0.48,0.29c0.16,0.09,0.28,0.13,0.37,0.13c0.1,0,0.19-0.04,0.25-0.12c0.06-0.08,0.11-0.17,0.16-0.28
		c0.04-0.1,0.07-0.21,0.09-0.33c0.02-0.11,0.03-0.21,0.03-0.28h0.18c0.38,0,0.64,0.11,0.77,0.34c0.13,0.23,0.2,0.5,0.2,0.81
		c0,0.07,0,0.13-0.01,0.18c-0.01,0.05-0.01,0.1-0.01,0.16c0.17-0.03,0.3-0.12,0.38-0.25c0.08-0.13,0.14-0.27,0.2-0.41
		c0.05-0.14,0.12-0.26,0.2-0.37c0.08-0.1,0.21-0.16,0.41-0.16c0.07,0,0.17,0.02,0.31,0.05h0.18c0.38,0.31,0.69,0.56,0.9,0.73
		c0.22,0.17,0.39,0.3,0.51,0.38c0.12,0.08,0.2,0.13,0.24,0.14c0.03,0.02,0.06,0.03,0.08,0.03c0.03,0,0.1,0.01,0.2,0.03
		c0.1,0.02,0.14,0.02,0.14,0c0-0.07-0.04-0.14-0.12-0.2c-0.08-0.06-0.17-0.13-0.26-0.2c-0.1-0.07-0.18-0.15-0.26-0.24
		s-0.12-0.18-0.12-0.29c0.21,0,0.38-0.03,0.5-0.09s0.23-0.13,0.31-0.21c0.09-0.08,0.18-0.15,0.28-0.22c0.1-0.07,0.22-0.1,0.38-0.1
		c0.23,0,0.4,0.03,0.52,0.1c0.12,0.07,0.23,0.14,0.31,0.22c0.09,0.08,0.17,0.15,0.24,0.22c0.07,0.07,0.17,0.1,0.29,0.1
		c0.09,0,0.16-0.01,0.22-0.03c0.06-0.02,0.14-0.03,0.22-0.03c0.12,0,0.2,0.05,0.24,0.16c0.03,0.1,0.06,0.2,0.08,0.29
		c0.05,0.26,0.1,0.46,0.13,0.6c0.03,0.14,0.08,0.26,0.13,0.37c0.05,0.1,0.12,0.21,0.2,0.33c0.08,0.11,0.19,0.28,0.33,0.48
		C189.58,91.66,189.64,91.81,189.64,91.97z M176.5,93.7c0.1-0.14,0.08-0.3-0.08-0.47c-0.16-0.17-0.33-0.26-0.52-0.26
		c-0.21,0-0.35,0.1-0.41,0.3c-0.06,0.2-0.09,0.38-0.09,0.54c0.03,0.12,0.09,0.22,0.16,0.29c0.05,0.07,0.11,0.13,0.18,0.18
		s0.15,0.08,0.24,0.08c0.14,0,0.24-0.03,0.31-0.09s0.12-0.14,0.16-0.22S176.5,93.84,176.5,93.7z"/>
	<path id="N" d="M222.95,92.23c0,0.16-0.04,0.33-0.12,0.52c-0.08,0.19-0.21,0.29-0.41,0.29c-0.07,0-0.14-0.03-0.2-0.1
		c-0.06-0.07-0.12-0.15-0.17-0.24c-0.05-0.09-0.11-0.17-0.17-0.24c-0.06-0.07-0.13-0.11-0.2-0.13c0.02,0.33,0.02,0.59,0,0.76
		c-0.02,0.17-0.04,0.3-0.08,0.38c-0.03,0.08-0.08,0.12-0.14,0.13c-0.06,0.01-0.13,0.01-0.2,0.01c-0.14,0-0.27,0.01-0.39,0.03
		c-0.12,0.02-0.24,0.04-0.37,0.08c-0.4,0.09-0.7,0.14-0.9,0.17c-0.2,0.03-0.35,0.08-0.43,0.17c-0.09,0.09-0.14,0.23-0.16,0.42
		c-0.02,0.19-0.04,0.5-0.08,0.92c-0.03,0.31-0.06,0.62-0.08,0.93c-0.02,0.31-0.03,0.62-0.03,0.93c0,0.84,0.04,1.66,0.12,2.46
		c0.08,0.8,0.12,1.63,0.12,2.46c0,0.4-0.03,0.8-0.09,1.18c-0.06,0.38-0.09,0.78-0.09,1.18c0,0.35,0.07,0.69,0.22,1.04
		c0.15,0.34,0.22,0.66,0.22,0.96c0,0.09-0.03,0.17-0.09,0.25c-0.06,0.08-0.13,0.16-0.21,0.25s-0.15,0.18-0.21,0.29
		c-0.06,0.1-0.09,0.23-0.09,0.37c0,0.37,0.07,0.72,0.2,1.06c0.13,0.34,0.2,0.69,0.2,1.06c0,0.56-0.03,1.12-0.1,1.68
		c-0.07,0.56-0.14,1.12-0.22,1.68c-0.08,0.56-0.15,1.12-0.22,1.68c-0.07,0.56-0.1,1.12-0.1,1.68c0,0.45,0.03,0.89,0.09,1.3
		c0.06,0.41,0.17,0.82,0.33,1.22c0.03,0.09,0.07,0.18,0.1,0.29c0.03,0.1,0.05,0.2,0.05,0.29c0,0.23-0.06,0.42-0.17,0.56
		c-0.11,0.15-0.17,0.28-0.17,0.38c0,0.09,0.06,0.19,0.17,0.31c0.11,0.12,0.19,0.24,0.22,0.34c0.12,0.4,0.22,0.84,0.29,1.32
		s0.1,0.93,0.1,1.35c0,0.37-0.1,0.73-0.29,1.07c-0.19,0.35-0.45,0.66-0.76,0.93c-0.31,0.27-0.67,0.49-1.06,0.67
		s-0.79,0.26-1.19,0.26c-0.54,0-1-0.17-1.38-0.5c-0.38-0.33-0.7-0.74-0.97-1.22s-0.52-0.98-0.73-1.51s-0.43-0.98-0.64-1.36
		c-0.17-0.31-0.31-0.62-0.41-0.9c-0.1-0.29-0.2-0.57-0.3-0.85c-0.1-0.28-0.24-0.55-0.39-0.83c-0.16-0.27-0.38-0.54-0.66-0.8
		c-0.23-0.21-0.4-0.46-0.52-0.75c-0.12-0.29-0.22-0.59-0.3-0.92s-0.15-0.65-0.21-0.97c-0.06-0.32-0.13-0.62-0.2-0.9
		c-0.19-0.68-0.42-1.35-0.68-2.02c-0.26-0.66-0.52-1.33-0.76-1.99c-0.09-0.21-0.2-0.45-0.33-0.71c-0.13-0.26-0.27-0.52-0.41-0.79
		c-0.14-0.26-0.27-0.52-0.38-0.76c-0.11-0.24-0.18-0.47-0.2-0.68c-0.07-0.58-0.22-1.1-0.45-1.56c-0.23-0.46-0.47-0.9-0.73-1.32
		s-0.52-0.85-0.76-1.28c-0.24-0.44-0.41-0.93-0.5-1.47c-0.03-0.17-0.1-0.41-0.18-0.69c-0.09-0.29-0.2-0.58-0.34-0.87
		c-0.14-0.29-0.31-0.54-0.5-0.75c-0.19-0.21-0.39-0.31-0.6-0.31c-0.19,0-0.35,0.09-0.46,0.28c-0.11,0.18-0.21,0.4-0.28,0.66
		c-0.07,0.25-0.12,0.51-0.14,0.76c-0.03,0.25-0.04,0.44-0.04,0.56c0,0.35,0.02,0.7,0.07,1.05c0.04,0.35,0.07,0.7,0.07,1.05
		c0,0.26-0.05,0.52-0.16,0.76c-0.1,0.24-0.16,0.49-0.16,0.73c0,0.16,0.06,0.29,0.17,0.39c0.11,0.1,0.17,0.23,0.17,0.37
		c0,0.14-0.02,0.28-0.05,0.41c-0.03,0.13-0.05,0.27-0.05,0.41c0,0.44,0.02,0.87,0.07,1.28s0.07,0.84,0.07,1.26
		c0,0.3-0.02,0.6-0.05,0.9c-0.03,0.31-0.1,0.59-0.21,0.85c-0.1,0.26-0.26,0.48-0.47,0.67c-0.21,0.18-0.48,0.3-0.81,0.35
		c0.07,0.14,0.16,0.23,0.28,0.28c0.11,0.04,0.23,0.07,0.35,0.09s0.23,0.04,0.31,0.08c0.09,0.03,0.13,0.13,0.13,0.29
		c0,0.09,0,0.16-0.01,0.22c-0.01,0.06-0.01,0.13-0.01,0.2c0,0.19,0.04,0.35,0.12,0.47s0.17,0.24,0.28,0.35
		c0.1,0.11,0.2,0.23,0.28,0.34c0.08,0.11,0.12,0.26,0.12,0.43c0,0.21-0.03,0.41-0.08,0.6c-0.05,0.19-0.08,0.38-0.08,0.58
		c0,0.42,0.05,0.83,0.16,1.22c0.1,0.39,0.16,0.8,0.16,1.22c0,0.23-0.02,0.39-0.07,0.48c-0.04,0.1-0.1,0.17-0.16,0.22
		c-0.06,0.05-0.11,0.09-0.16,0.12s-0.07,0.09-0.07,0.2c0,0.17,0.03,0.34,0.08,0.48s0.08,0.31,0.08,0.48c0,0.1-0.01,0.21-0.04,0.31
		c-0.03,0.1-0.08,0.2-0.17,0.29c0.02,0.21,0.09,0.36,0.21,0.45s0.27,0.17,0.43,0.24c0.17,0.07,0.33,0.14,0.48,0.22
		c0.16,0.08,0.28,0.21,0.37,0.41c0.07,0.16,0.14,0.3,0.22,0.43s0.21,0.2,0.41,0.2c0.3,0,0.57-0.07,0.81-0.2s0.51-0.2,0.79-0.2
		c0.45,0,0.77,0.18,0.94,0.54c0.17,0.36,0.26,0.73,0.26,1.11c0,0.49-0.08,0.83-0.25,1.04c-0.17,0.2-0.35,0.35-0.55,0.45
		c-0.2,0.1-0.38,0.19-0.55,0.28s-0.25,0.25-0.25,0.5c0,0.03,0,0.06,0.01,0.08c0.01,0.02,0.01,0.04,0.01,0.08
		c-0.24-0.16-0.5-0.27-0.77-0.34c-0.27-0.07-0.55-0.1-0.85-0.1c-0.52,0-1.04,0.07-1.56,0.22s-1.04,0.22-1.56,0.22
		c-0.38,0-0.76-0.03-1.13-0.1c-0.37-0.07-0.74-0.1-1.13-0.1c-0.24,0-0.48,0.03-0.72,0.09s-0.48,0.09-0.72,0.09s-0.57-0.06-0.97-0.17
		c-0.4-0.11-0.8-0.26-1.18-0.45c-0.38-0.18-0.71-0.38-0.98-0.6s-0.41-0.42-0.41-0.62c0-0.52,0.17-1,0.52-1.43
		c0.35-0.43,0.79-0.69,1.31-0.77c0.26-0.05,0.55-0.08,0.88-0.08s0.64-0.01,0.96-0.04c0.31-0.03,0.61-0.09,0.89-0.18
		c0.28-0.1,0.52-0.27,0.71-0.51c-0.07-0.26-0.1-0.56-0.1-0.89c0-0.61,0.08-1.21,0.24-1.78c0.16-0.58,0.24-1.17,0.24-1.78
		c0-0.24-0.03-0.5-0.08-0.76c-0.21-1.21-0.31-2.42-0.31-3.64c0-0.35,0.01-0.7,0.03-1.06c0.02-0.36,0.03-0.71,0.03-1.06
		c0-0.91-0.07-1.81-0.2-2.7c-0.13-0.89-0.21-1.79-0.25-2.7c-0.03-0.96-0.05-1.91-0.05-2.84s-0.1-1.87-0.29-2.82
		c-0.05-0.24-0.08-0.48-0.09-0.71c-0.01-0.23-0.01-0.46-0.01-0.71v-0.94c0-0.73-0.03-1.28-0.1-1.65s-0.19-0.63-0.37-0.8
		c-0.17-0.17-0.4-0.27-0.67-0.31c-0.27-0.04-0.61-0.09-1.01-0.14c-0.23-0.03-0.46-0.15-0.69-0.34c-0.24-0.19-0.45-0.42-0.66-0.68
		c-0.2-0.26-0.37-0.53-0.5-0.81c-0.13-0.28-0.2-0.53-0.2-0.76v-0.58c0-0.7,0.1-1.24,0.31-1.61c0.21-0.38,0.5-0.66,0.87-0.84
		c0.37-0.18,0.8-0.29,1.3-0.33s1.04-0.05,1.61-0.05s1.18,0.02,1.8,0.07c0.62,0.04,1.22,0.14,1.8,0.29s1.1,0.37,1.57,0.66
		c0.47,0.29,0.86,0.68,1.15,1.17c0.19,0.33,0.36,0.68,0.5,1.04s0.27,0.72,0.39,1.09s0.24,0.73,0.37,1.09
		c0.12,0.36,0.28,0.7,0.47,1.04c0.09,0.16,0.15,0.33,0.2,0.51c0.04,0.18,0.09,0.37,0.13,0.55s0.09,0.36,0.14,0.52
		c0.05,0.17,0.13,0.33,0.24,0.48c0.12,0.14,0.27,0.28,0.43,0.43s0.29,0.31,0.38,0.48c0.16,0.35,0.27,0.71,0.33,1.09
		c0.06,0.38,0.12,0.75,0.17,1.13c0.05,0.38,0.11,0.75,0.17,1.13c0.06,0.38,0.17,0.74,0.33,1.09c0.1,0.21,0.21,0.38,0.3,0.52
		c0.1,0.14,0.18,0.28,0.26,0.41c0.08,0.13,0.15,0.28,0.21,0.45c0.06,0.17,0.11,0.38,0.14,0.64c0.03,0.38,0.07,0.76,0.1,1.14
		c0.03,0.38,0.12,0.75,0.26,1.11c0.1,0.26,0.24,0.51,0.42,0.73c0.17,0.23,0.35,0.45,0.54,0.67c0.18,0.22,0.36,0.44,0.54,0.67
		c0.17,0.23,0.31,0.48,0.39,0.76c0.17,0.52,0.34,1.01,0.5,1.47c0.16,0.45,0.46,0.86,0.92,1.21c-0.1,0.16-0.2,0.33-0.28,0.51
		c-0.08,0.18-0.12,0.37-0.12,0.56c0,0.37,0.09,0.73,0.28,1.09c0.18,0.36,0.35,0.7,0.48,1.04c0.1,0.26,0.21,0.49,0.33,0.68
		c0.11,0.19,0.31,0.36,0.59,0.5c0.24,0.12,0.41,0.23,0.5,0.33c0.09,0.1,0.14,0.2,0.16,0.31c0.02,0.11,0.02,0.24,0.01,0.39
		s0.01,0.34,0.07,0.56c0.02,0.1,0.05,0.23,0.1,0.38c0.05,0.15,0.12,0.3,0.2,0.45s0.17,0.28,0.28,0.38c0.1,0.1,0.22,0.16,0.34,0.16
		c0.1,0,0.18-0.04,0.24-0.12c0.05-0.08,0.1-0.17,0.13-0.28c0.03-0.1,0.06-0.21,0.07-0.33c0.01-0.11,0.01-0.21,0.01-0.28
		c0-0.24,0.07-0.47,0.2-0.67c0.13-0.2,0.2-0.43,0.2-0.69c0-0.3-0.07-0.57-0.2-0.81s-0.2-0.52-0.2-0.81c0-0.24,0.05-0.47,0.14-0.67
		c0.1-0.2,0.14-0.42,0.14-0.67c0-0.17-0.07-0.32-0.2-0.45c-0.13-0.12-0.2-0.24-0.2-0.37c0-0.05,0.03-0.08,0.08-0.09
		c0.05-0.01,0.1-0.02,0.16-0.04c0.05-0.02,0.1-0.05,0.16-0.09s0.08-0.13,0.08-0.25c0-0.42-0.05-0.83-0.14-1.22s-0.21-0.79-0.33-1.19
		c-0.12-0.4-0.23-0.81-0.33-1.22c-0.1-0.41-0.14-0.83-0.14-1.25s0.09-0.79,0.26-1.1c0.17-0.31,0.26-0.52,0.26-0.63
		c0-0.23-0.06-0.43-0.17-0.62c-0.11-0.18-0.17-0.39-0.17-0.62c0-0.26,0.07-0.51,0.2-0.75s0.2-0.48,0.2-0.75
		c0-0.16-0.03-0.31-0.1-0.46s-0.15-0.3-0.24-0.46c-0.09-0.16-0.17-0.32-0.25-0.48c-0.08-0.17-0.14-0.33-0.17-0.48
		c-0.05-0.26-0.08-0.53-0.09-0.81c-0.01-0.28-0.01-0.56-0.01-0.84V99.6c0-0.47-0.02-0.93-0.07-1.38c-0.04-0.45-0.13-0.9-0.25-1.35
		c-0.1-0.42-0.17-0.8-0.18-1.15s-0.07-0.66-0.16-0.92c-0.09-0.26-0.25-0.48-0.5-0.64c-0.24-0.17-0.65-0.27-1.21-0.3
		c-0.4-0.03-0.8-0.06-1.21-0.07c-0.4-0.01-0.8-0.07-1.21-0.17c-0.26-0.07-0.46-0.22-0.59-0.45c-0.13-0.23-0.22-0.48-0.28-0.76
		c-0.05-0.28-0.08-0.56-0.08-0.85c0-0.29,0-0.52,0-0.69c0-0.33,0.16-0.61,0.48-0.83c0.32-0.22,0.71-0.4,1.15-0.54
		c0.45-0.14,0.9-0.24,1.35-0.3c0.45-0.06,0.8-0.09,1.05-0.09c0.16,0,0.44,0.01,0.84,0.03c0.4,0.02,0.85,0.05,1.34,0.1
		c0.49,0.05,1,0.12,1.52,0.2c0.52,0.08,1,0.18,1.44,0.31s0.8,0.28,1.07,0.46c0.28,0.17,0.42,0.38,0.42,0.6
		c0.16-0.17,0.33-0.32,0.52-0.45s0.41-0.18,0.66-0.18c0.23,0,0.44,0.07,0.64,0.2c0.2,0.13,0.37,0.3,0.51,0.51
		c0.14,0.21,0.25,0.43,0.33,0.67C222.91,91.8,222.95,92.02,222.95,92.23z M198.18,124.89c0-0.16-0.04-0.28-0.13-0.35
		c-0.09-0.08-0.2-0.14-0.33-0.17c-0.13-0.03-0.26-0.07-0.39-0.12c-0.13-0.04-0.23-0.11-0.3-0.2c-0.02,0.05-0.03,0.1-0.04,0.14
		c-0.01,0.04-0.01,0.09-0.01,0.14c0,0.16,0.04,0.28,0.13,0.35c0.09,0.08,0.2,0.14,0.33,0.17c0.13,0.03,0.26,0.07,0.38,0.12
		s0.23,0.11,0.31,0.2c0.02-0.05,0.03-0.1,0.04-0.14C198.18,124.99,198.18,124.94,198.18,124.89z"/>
	<path id="A_00000000216387133038571010000011482736793767318192_" d="M254.12,125.38c-0.1,0.18-0.24,0.35-0.39,0.5
		c-0.16,0.15-0.33,0.27-0.52,0.37s-0.38,0.14-0.55,0.14c-0.12,0-0.24-0.01-0.37-0.03c-0.12-0.02-0.24-0.03-0.37-0.03
		c-0.16,0-0.26,0.05-0.31,0.14c-0.05,0.1-0.1,0.2-0.14,0.3c-0.04,0.1-0.11,0.21-0.2,0.3c-0.09,0.1-0.24,0.14-0.47,0.14
		c-0.14,0-0.29-0.02-0.45-0.05c-0.16-0.03-0.31-0.05-0.47-0.05c-0.33,0-0.65,0.07-0.96,0.2c-0.31,0.13-0.63,0.2-0.98,0.2
		c-0.3,0-0.74-0.05-1.34-0.14s-1.19-0.24-1.8-0.45c-0.6-0.2-1.13-0.45-1.59-0.73c-0.45-0.29-0.68-0.62-0.68-1.01
		c0-0.3,0.17-0.6,0.51-0.9c0.34-0.31,0.72-0.65,1.14-1.02c0.42-0.38,0.8-0.8,1.14-1.27s0.51-1.02,0.51-1.65
		c0-0.37-0.07-0.73-0.22-1.07c-0.15-0.35-0.34-0.68-0.56-0.98s-0.48-0.59-0.77-0.85c-0.29-0.26-0.56-0.51-0.83-0.73
		c-0.09-0.03-0.22-0.05-0.39-0.05c-0.47,0-0.94,0.05-1.42,0.14s-0.94,0.14-1.42,0.14c-0.24,0-0.49-0.03-0.75-0.1
		c-0.25-0.07-0.42-0.24-0.51-0.52c-0.45,0.23-0.91,0.44-1.36,0.64c-0.45,0.2-0.92,0.38-1.39,0.54c-0.3,0.1-0.51,0.18-0.64,0.24
		c-0.13,0.05-0.23,0.11-0.29,0.18c-0.06,0.07-0.1,0.17-0.13,0.31s-0.09,0.34-0.2,0.6c-0.07,0.17-0.1,0.33-0.1,0.47
		c0,0.14,0,0.3,0,0.47c0,0.23-0.04,0.41-0.13,0.54c-0.09,0.13-0.18,0.25-0.28,0.37s-0.19,0.23-0.28,0.35s-0.13,0.28-0.13,0.47
		c0,0.16,0.03,0.3,0.08,0.42l-0.03,0.13c0,0.26,0.07,0.47,0.21,0.62c0.14,0.15,0.31,0.26,0.51,0.34c0.2,0.08,0.42,0.15,0.64,0.22
		s0.43,0.16,0.6,0.26c0.17,0.1,0.35,0.28,0.51,0.51s0.31,0.49,0.45,0.76s0.24,0.54,0.33,0.81c0.09,0.27,0.13,0.5,0.13,0.69v0.13
		h-0.34c-0.7,0-1.39,0.03-2.08,0.09s-1.38,0.13-2.06,0.21c-0.68,0.08-1.37,0.15-2.06,0.21s-1.38,0.09-2.08,0.09
		c-0.24,0-0.6-0.01-1.06-0.03c-0.46-0.02-0.92-0.07-1.38-0.14c-0.45-0.08-0.85-0.21-1.19-0.39c-0.34-0.18-0.51-0.45-0.51-0.8
		c0-0.37,0.08-0.67,0.25-0.92c0.17-0.24,0.38-0.45,0.66-0.62c0.27-0.17,0.58-0.31,0.92-0.42c0.34-0.11,0.68-0.22,1.02-0.33
		c0.34-0.1,0.66-0.21,0.97-0.31c0.31-0.1,0.56-0.24,0.77-0.42c0.21-0.17,0.38-0.46,0.52-0.85s0.25-0.82,0.34-1.27
		c0.09-0.45,0.17-0.9,0.24-1.35c0.07-0.45,0.13-0.8,0.18-1.06c0.02-0.09,0.03-0.2,0.04-0.33c0.01-0.13,0.02-0.27,0.03-0.41
		c0.01-0.14,0.02-0.27,0.03-0.39c0.01-0.12,0.03-0.21,0.07-0.26c0.17-0.3,0.31-0.47,0.41-0.52c0.1-0.05,0.17-0.1,0.21-0.13
		s0.07-0.13,0.08-0.28s0.01-0.46,0.01-0.93c0-0.21,0.04-0.37,0.13-0.48c0.09-0.11,0.18-0.21,0.28-0.3s0.19-0.17,0.28-0.25
		c0.09-0.08,0.13-0.19,0.13-0.33c0-0.24-0.07-0.47-0.21-0.67c-0.14-0.2-0.21-0.42-0.21-0.67c0-0.14,0.03-0.26,0.1-0.37
		c0.07-0.1,0.15-0.2,0.25-0.29s0.18-0.18,0.25-0.28c0.07-0.1,0.1-0.21,0.1-0.35c0-0.19-0.04-0.38-0.12-0.58
		c-0.08-0.19-0.12-0.38-0.12-0.58c0-0.14,0.05-0.24,0.14-0.3s0.2-0.11,0.31-0.14c0.11-0.03,0.22-0.07,0.31-0.09
		c0.1-0.03,0.14-0.07,0.14-0.12c-0.05-0.1-0.15-0.16-0.29-0.16c-0.21,0-0.31,0.11-0.31,0.34c-0.12-0.09-0.23-0.19-0.31-0.3
		c-0.09-0.11-0.13-0.24-0.13-0.38c0-0.17,0.04-0.34,0.13-0.48c0.09-0.15,0.19-0.32,0.3-0.51c0.11-0.19,0.21-0.41,0.3-0.66
		c0.09-0.24,0.13-0.54,0.13-0.89c0-0.37-0.05-0.72-0.16-1.06c-0.1-0.34-0.16-0.69-0.16-1.04c0-0.17,0.04-0.35,0.12-0.52
		c0.08-0.17,0.17-0.35,0.29-0.51c0.11-0.17,0.23-0.33,0.34-0.5c0.11-0.17,0.2-0.35,0.25-0.54c0.1-0.33,0.16-0.68,0.17-1.05
		c0.01-0.37,0.02-0.73,0.03-1.1c0.01-0.37,0.03-0.73,0.08-1.09c0.04-0.36,0.15-0.69,0.33-1.01c0.16-0.28,0.28-0.51,0.37-0.68
		c0.09-0.17,0.17-0.35,0.24-0.51c0.07-0.17,0.13-0.35,0.18-0.55c0.05-0.2,0.1-0.47,0.16-0.8c0.09-0.51,0.22-1,0.41-1.47
		c0.18-0.47,0.31-0.96,0.38-1.47c0.03-0.38,0.06-0.71,0.07-0.98s0.05-0.51,0.13-0.72s0.22-0.39,0.42-0.55
		c0.2-0.16,0.51-0.31,0.93-0.47c0.45-0.16,0.91-0.27,1.36-0.33s0.91-0.09,1.36-0.09c0.52,0,1.07,0.03,1.63,0.08
		c0.05,0.3,0.17,0.56,0.34,0.8c0.17,0.24,0.36,0.47,0.56,0.69s0.39,0.46,0.58,0.69c0.18,0.24,0.31,0.5,0.38,0.8
		c0.09,0.4,0.14,0.78,0.17,1.14s0.17,0.71,0.43,1.06c0.12,0.19,0.18,0.42,0.18,0.68c0,0.4-0.05,0.79-0.16,1.15
		c-0.1,0.37-0.16,0.74-0.16,1.13c0,0.23,0.07,0.6,0.21,1.13s0.31,1.09,0.5,1.69s0.38,1.19,0.55,1.76c0.17,0.57,0.31,1.01,0.39,1.32
		c0.16,0.66,0.24,1.35,0.25,2.04s0.12,1.38,0.33,2.04c0.21,0.7,0.39,1.39,0.55,2.08c0.16,0.69,0.26,1.4,0.31,2.14
		c0.03,0.68,0.12,1.34,0.26,1.98c0.14,0.64,0.29,1.28,0.45,1.91c0.16,0.64,0.3,1.28,0.43,1.93s0.2,1.32,0.2,2.02
		c0,0.26-0.02,0.53-0.07,0.81c-0.04,0.28-0.16,0.52-0.35,0.73c0.37,0.44,0.78,0.91,1.25,1.42c0.46,0.51,0.92,0.91,1.38,1.21
		c0.17,0.1,0.45,0.18,0.81,0.24s0.74,0.12,1.11,0.2c0.38,0.08,0.71,0.19,1,0.34c0.29,0.15,0.43,0.36,0.43,0.64
		C254.28,125.01,254.23,125.19,254.12,125.38z M243.3,110.68c0-0.16-0.06-0.36-0.18-0.62s-0.26-0.54-0.41-0.85
		c-0.15-0.31-0.28-0.66-0.41-1.02s-0.18-0.75-0.18-1.15c0-0.47-0.07-0.94-0.21-1.4c-0.14-0.46-0.24-0.93-0.29-1.4
		c-0.03-0.38-0.07-0.81-0.12-1.27c-0.04-0.46-0.14-0.9-0.28-1.31c-0.14-0.41-0.35-0.75-0.64-1.02s-0.7-0.41-1.25-0.41
		c-0.03,0.14-0.1,0.24-0.18,0.3c-0.09,0.06-0.19,0.11-0.3,0.16c-0.11,0.04-0.23,0.08-0.35,0.12c-0.12,0.03-0.22,0.1-0.29,0.18
		c0.02,0.05,0.03,0.13,0.03,0.24c0,0.31-0.07,0.61-0.2,0.88c-0.13,0.27-0.25,0.55-0.35,0.83c-0.12,0.3-0.21,0.61-0.25,0.93
		s-0.07,0.64-0.07,0.96c0,0.28,0.01,0.55,0.03,0.81c0.02,0.26,0.03,0.52,0.03,0.79c0,0.4-0.03,0.75-0.1,1.04
		c-0.07,0.29-0.15,0.55-0.24,0.8c-0.09,0.24-0.17,0.48-0.24,0.69c-0.07,0.22-0.1,0.45-0.1,0.69c0,0.52,0.02,0.98,0.05,1.36
		c0.03,0.38,0.11,0.7,0.24,0.96c0.12,0.25,0.3,0.45,0.52,0.58c0.23,0.13,0.54,0.2,0.94,0.2c0.28,0,0.69-0.03,1.22-0.1
		s1.07-0.19,1.6-0.35c0.53-0.17,1-0.38,1.39-0.64S243.3,111.05,243.3,110.68z"/>
</g>
<path id="small_x5F_wing_x5F_right" d="M108.12,41.59c-0.01-0.01-0.04-0.02-0.06-0.02c-0.37-0.16-0.74-0.26-1.14-0.34
	c-0.01,0.01-0.02,0-0.02,0c-0.87-0.2-1.77-0.23-2.73-0.13c-0.14,0.01-0.28,0.03-0.43,0.05c-0.02,0-0.05,0.01-0.07,0.01
	c-4.61,0.77-10.27,4.98-16.88,12.48c-1.96,2.21-3.69,4.38-5.1,6.23v0.02l-4.14,5.71c0.94,0.61,1.87,1.37,2.7,2.33
	c1.43,1.6,2.43,3.56,2.98,5.8c6.16,0.43,15.08,0.31,24.24-2.34c3.79-1.12,6.72-2.63,8.73-4.56c1.59-1.5,2.62-3.26,3.09-5.26
	c1.14-4.73-1.07-10.34-6.3-15.98c-0.21-0.25-0.48-0.52-0.79-0.83C111.12,43.67,109.55,42.25,108.12,41.59z M109.9,47.68
	c0.27,0.29,0.55,0.59,0.82,0.89c-0.01,0.01,0,0.02,0.02,0.02c0.25,0.29,0.49,0.59,0.73,0.88c0.56,0.69,0.98,1.27,1.18,1.53
	l0.01,0.01c2.58,3.6,3.67,7.01,3.05,9.7c-0.76,3.14-3.86,5.53-9.25,7.1c-5.87,1.72-11.71,2.28-16.7,2.35
	c-0.03,0.01-0.05,0.01-0.05,0.01l-4,0.55c-0.67-1.84-2.07-3.67-2.87-4.64l-0.04-0.04c-0.2-0.2-0.39-0.43-0.57-0.66
	c3.9-5.51,11.89-15.56,18.57-19.23c0,0,0.03-0.03,0.11-0.07c1.3-0.7,2.53-1.16,3.69-1.29c0.13-0.02,0.25-0.02,0.38-0.02
	c0.01,0.01,0.01,0.01,0.02,0c0.07-0.01,0.14-0.01,0.19-0.02c0.05,0.01,0.11,0.01,0.17,0c0.1,0.02,0.22,0.03,0.33,0.04
	c0.02,0,0.04,0,0.07,0.01c0.38,0.02,0.72,0.11,1.02,0.25c0.03,0.01,0.07,0.03,0.1,0.04C107.92,45.48,108.97,46.27,109.9,47.68z"/>
<path id="small_x5F_wing_x5F_left" d="M33.68,122.21c0.31,0.31,0.58,0.58,0.83,0.79c5.64,5.23,11.26,7.44,15.98,6.3
	c1.99-0.47,3.76-1.5,5.26-3.09c1.93-2.01,3.44-4.94,4.56-8.73c2.65-9.16,2.76-18.08,2.34-24.24c-2.24-0.55-4.2-1.55-5.8-2.98
	c-0.96-0.83-1.72-1.76-2.33-2.7l-5.71,4.14h-0.02c-1.85,1.41-4.02,3.14-6.23,5.1c-7.5,6.6-11.7,12.27-12.48,16.88
	c0,0.02-0.01,0.05-0.01,0.07c-0.02,0.15-0.04,0.29-0.05,0.43c-0.1,0.96-0.07,1.87,0.13,2.73c0,0,0.01,0.01,0,0.02
	c0.08,0.4,0.19,0.77,0.34,1.14c0,0.02,0.01,0.05,0.02,0.06C31.17,119.56,32.59,121.13,33.68,122.21z M34.01,116.89
	c-0.01-0.03-0.03-0.07-0.04-0.1c-0.14-0.3-0.23-0.65-0.25-1.02c-0.01-0.03-0.01-0.05-0.01-0.07c-0.01-0.11-0.02-0.23-0.04-0.33
	c0.01-0.05,0.01-0.11,0-0.17c0.01-0.05,0.01-0.11,0.02-0.19c0.01-0.01,0.01-0.01,0-0.02c0-0.13,0-0.25,0.02-0.38
	c0.14-1.16,0.59-2.39,1.29-3.69c0.04-0.08,0.07-0.11,0.07-0.11c3.67-6.68,13.73-14.67,19.23-18.57c0.23,0.19,0.46,0.38,0.66,0.57
	l0.04,0.04c0.97,0.8,2.81,2.2,4.64,2.87l-0.55,4c0,0,0,0.02-0.01,0.05c-0.06,4.99-0.63,10.83-2.35,16.7
	c-1.58,5.39-3.96,8.49-7.1,9.25c-2.69,0.63-6.1-0.47-9.7-3.05l-0.01-0.01c-0.26-0.2-0.84-0.62-1.53-1.18
	c-0.28-0.24-0.58-0.48-0.88-0.73c0-0.02-0.01-0.03-0.02-0.02c-0.29-0.27-0.59-0.55-0.89-0.82C35.2,118.98,34.41,117.93,34.01,116.89
	z"/>
<path id="big_x5F_wing_x5F_left" d="M53.2,82.95c-4.12,1.24-9.55,2.96-15.16,5.02C22.25,93.81,12.78,99.48,9.9,104.91
	c-2.83,5.27-2.82,10.33,0,14.27c3.05,4.26,9.29,6.67,14.84,5.75c2-0.33,3.96-0.75,5.98-1.43c0.07-0.03,0.15-0.04,0.22-0.07
	c0.2-0.07,0.4-0.15,0.62-0.22c0.03-0.01,0.07-0.03,0.1-0.04c0.24-0.09,0.49-0.2,0.74-0.3c0.03-0.01,0.07-0.03,0.11-0.05
	c1.69-0.73,4.4-2.13,7.44-4.5c0.32-0.26,0.67-0.54,1.01-0.82c1.31-1.13,2.69-2.42,4.13-3.94c3.08-3.22,6.47-7.43,10.28-12.91
	c0,0,0.26-0.37,0.66-0.95c0.22-0.32,0.44-0.65,0.67-0.98c0.07-0.11,0.15-0.23,0.22-0.34c1.24-1.91,2.85-4.56,3.17-6.05
	c-0.91-0.49-1.75-1.06-2.5-1.73C54.84,88.15,53.69,85.07,53.2,82.95z M53.6,89.75c0.33,1.04,1.88,3.13,1.88,3.13l-0.01,0.01
	c0.14,0.11,0.27,0.25,0.39,0.39c-6.36,9.76-11.46,15.99-15.74,20l-0.05,0.05c-0.17,0.17-0.34,0.32-0.52,0.5
	c-6.23,5.87-11.88,6.83-12.56,6.93c-0.05,0.01-0.07,0.01-0.07,0.01c-0.95,0.2-1.88,0.35-2.77,0.5c-4.16,0.7-8.98-1.12-11.22-4.26
	c-1.98-2.75-1.9-6.34,0.24-10.36c3.89-7.23,23.9-14.82,38.1-19.25C52.24,87.1,53.28,88.7,53.6,89.75z"/>
<path id="big_x5F_wing_x5F_right" d="M80.71,68.38c0.67,0.75,1.24,1.6,1.73,2.5c1.49-0.32,4.14-1.93,6.05-3.17
	c0.11-0.07,0.23-0.15,0.34-0.22c0.33-0.23,0.66-0.45,0.98-0.67c0.58-0.4,0.95-0.66,0.95-0.66c5.49-3.82,9.69-7.21,12.91-10.28
	c1.52-1.44,2.82-2.82,3.94-4.13c0.28-0.34,0.56-0.69,0.82-1.01c2.37-3.04,3.77-5.75,4.5-7.44c0.02-0.04,0.04-0.08,0.05-0.11
	c0.1-0.25,0.21-0.5,0.3-0.74c0.01-0.03,0.03-0.07,0.04-0.1c0.07-0.22,0.15-0.42,0.22-0.62c0.03-0.07,0.04-0.15,0.07-0.22
	c0.68-2.01,1.1-3.97,1.43-5.98c0.92-5.55-1.49-11.8-5.75-14.84c-3.94-2.82-9-2.83-14.27,0c-5.42,2.88-11.1,12.35-16.94,28.14
	c-2.05,5.6-3.78,11.04-5.02,15.16C75.21,64.48,78.29,65.63,80.71,68.38z M77.54,62.04c4.42-14.21,12.02-34.21,19.25-38.1
	c4.02-2.14,7.6-2.22,10.36-0.24c3.14,2.24,4.95,7.06,4.26,11.22c-0.15,0.9-0.3,1.83-0.5,2.77c0,0,0,0.02-0.01,0.07
	c-0.09,0.68-1.05,6.33-6.93,12.56c-0.18,0.18-0.33,0.35-0.5,0.52l-0.05,0.05c-4.01,4.28-10.23,9.38-20,15.74
	c-0.14-0.11-0.27-0.25-0.39-0.39l-0.01,0.01c0,0-2.09-1.54-3.13-1.88C78.84,64.06,77.24,63.03,77.54,62.04z"/>
<path id="antenna_x5F_left" d="M19.58,64.25c-0.72,0.28-1.06,1.08-0.79,1.79c0.28,0.72,1.08,1.06,1.79,0.79
	c11.56-4.49,20.32-3.03,26.49-0.04l0.78-2.58C41.12,61.04,31.71,59.52,19.58,64.25z"/>
<path id="body" d="M104.91,91.61c-7.37-8.38-18.53-9.66-22.6-9.83c0.24-4.95-0.93-8.92-3.49-11.84c-2.97-3.37-6.96-4.33-8.91-4.61
	c-0.78-3.7-2.52-6.21-5.18-7.47c-2.43-1.16-5.22-1.04-7.72-0.48l-0.01-0.01c-0.95,0.22-1.93,0.55-2.59,0.77
	c-0.45,0.16-0.73,0.27-0.73,0.27c-1.93,0.74-3.25,1.52-3.4,1.61l-0.31,0.16l-0.16,0.31c-0.07,0.14-0.88,1.5-1.65,3.47
	c-0.02,0.04-0.06,0.16-0.12,0.33c-0.2,0.63-0.59,1.97-0.78,2.58c0,0.02-0.01,0.05-0.01,0.07c-0.04,0.17-0.07,0.28-0.07,0.28
	c-0.55,2.5-0.67,5.28,0.49,7.71c1.26,2.66,3.77,4.39,7.47,5.17c0.28,1.95,1.24,5.94,4.61,8.91c2.92,2.56,6.88,3.74,11.84,3.49
	c0.16,4.07,1.45,15.22,9.81,22.6c6.69,5.89,16.24,7.92,28.38,6.02l1-0.14l0.16-1.02C112.84,107.84,110.81,98.29,104.91,91.61z
	 M63.55,60.37c1.88,0.89,3.13,2.84,3.69,5.78l-1.55,1.55c-1.47-1.07-4.57-3.65-7.2-7.76C60.27,59.65,62.07,59.66,63.55,60.37z
	 M52.03,62.21c0.87-0.47,2.21-1.11,3.76-1.61c2.76,4.62,6.11,7.64,7.95,9.05l-4,4.01c-1.44-1.86-4.51-5.26-9.2-8.03
	C51.08,64.04,51.73,62.79,52.03,62.21z M55.95,77.44c-2.94-0.57-4.88-1.82-5.78-3.69c-0.77-1.64-0.74-3.6-0.39-5.45
	c2.18,1.36,3.92,2.86,5.26,4.19c1.28,1.28,2.18,2.41,2.71,3.15L55.95,77.44z M61.6,86.96c-2.88-2.52-3.58-6.12-3.76-7.49
	l11.42-11.42c1.36,0.18,4.96,0.88,7.48,3.77c2.25,2.56,3.17,6.26,2.71,11.01c-1.77,4.98-6.04,6.58-6.79,6.83
	C67.9,90.11,64.19,89.21,61.6,86.96z M74.34,91.97c1.09-0.44,2.83-1.37,4.48-3.02c1.12-1.12,2.19-2.56,2.96-4.42
	c0.75,0.02,1.94,0.1,3.39,0.3L74.64,95.36C74.44,93.91,74.37,92.73,74.34,91.97z M75.5,99.74L89.53,85.7
	c1.22,0.32,2.5,0.73,3.81,1.26l-16.59,16.58C76.23,102.24,75.83,100.95,75.5,99.74z M80.47,110.1c-0.76-0.97-1.42-1.98-2.01-3.01
	l18.43-18.43c1.02,0.58,2.05,1.25,3,2.02L80.47,110.1z M83.26,113.05c-0.09-0.09-0.16-0.17-0.26-0.24l-0.01,0.01l-0.12-0.12
	c0.04,0.04,0.08,0.07,0.13,0.11L102.6,93.2c0.08,0.08,0.17,0.17,0.24,0.26c0.71,0.81,1.37,1.68,1.96,2.61l-18.94,18.94
	C84.94,114.42,84.07,113.76,83.26,113.05z M89.3,116.82l17.32-17.33c0.5,1.19,0.93,2.45,1.26,3.77l-14.82,14.82
	C91.75,117.75,90.48,117.32,89.3,116.82z M108.34,118.55c-3.91,0.53-7.52,0.64-10.82,0.3l11.12-11.12
	C108.99,111.02,108.88,114.63,108.34,118.55z"/>
<path id="antenna_x5F_right" d="M56.1,28.72c-0.71-0.27-1.52,0.08-1.79,0.79c-4.75,12.19-3.2,21.64,0,28.39l2.63-0.69
	c-3.06-6.19-4.59-15.02-0.04-26.7C57.17,29.8,56.82,29,56.1,28.72z"/>
</svg>
