<svg xmlns="http://www.w3.org/2000/svg" width="67.522" height="30.172" viewBox="0 0 67.522 30.172">
  <g id="Group_3339" data-name="Group 3339" transform="translate(0)">
    <path id="Icon_awesome-facebook-f" data-name="Icon awesome-facebook-f" d="M16.275,16.483l.814-5.3H12V7.738a2.652,2.652,0,0,1,2.99-2.865H17.3V.358A28.211,28.211,0,0,0,13.2,0c-4.191,0-6.93,2.54-6.93,7.138V11.18H1.609v5.3H6.268V29.3H12V16.483Z" transform="translate(-1.609)"/>
    <path id="Icon_awesome-instagram" data-name="Icon awesome-instagram" d="M15.088,9.588a7.736,7.736,0,1,0,7.736,7.736A7.724,7.724,0,0,0,15.088,9.588Zm0,12.765a5.029,5.029,0,1,1,5.029-5.029,5.038,5.038,0,0,1-5.029,5.029ZM24.944,9.272a1.8,1.8,0,1,1-1.8-1.8A1.8,1.8,0,0,1,24.944,9.272ZM30.068,11.1A8.929,8.929,0,0,0,27.63,4.781a8.988,8.988,0,0,0-6.322-2.437c-2.491-.141-9.958-.141-12.449,0a8.975,8.975,0,0,0-6.322,2.43A8.958,8.958,0,0,0,.1,11.1c-.141,2.491-.141,9.958,0,12.449a8.929,8.929,0,0,0,2.437,6.322A9,9,0,0,0,8.86,32.3c2.491.141,9.958.141,12.449,0a8.929,8.929,0,0,0,6.322-2.437,8.988,8.988,0,0,0,2.437-6.322c.141-2.491.141-9.951,0-12.442ZM26.849,26.218a5.092,5.092,0,0,1-2.868,2.868c-1.986.788-6.7.606-8.894.606s-6.914.175-8.894-.606a5.092,5.092,0,0,1-2.868-2.868c-.788-1.986-.606-6.7-.606-8.894s-.175-6.914.606-8.894A5.092,5.092,0,0,1,6.194,5.562c1.986-.788,6.7-.606,8.894-.606s6.914-.175,8.894.606A5.092,5.092,0,0,1,26.849,8.43c.788,1.986.606,6.7.606,8.894S27.637,24.238,26.849,26.218Z" transform="translate(37.348 -2.237)"/>
  </g>
</svg>
